<?xml version="1.0" encoding="UTF-8"?>
<svg version="1.1" xmlns="http://www.w3.org/2000/svg" width="974" height="458">
<path d="M0 0 C1.13207886 -0.00637985 2.26415771 -0.0127597 3.43054199 -0.01933289 C4.66582642 -0.02044571 5.90111084 -0.02155853 7.17382812 -0.02270508 C8.43843872 -0.02603348 9.70304932 -0.02936188 11.00598145 -0.03279114 C13.69282525 -0.03786842 16.37956806 -0.04063027 19.06640625 -0.04003906 C22.48799932 -0.03993814 25.90938158 -0.05351197 29.33092499 -0.07081127 C32.61188449 -0.08470914 35.89284322 -0.08402339 39.17382812 -0.08520508 C41.00246399 -0.09598335 41.00246399 -0.09598335 42.86804199 -0.10697937 C49.45191871 -0.08947637 55.35759173 0.41099735 61.70507812 2.14526367 C62.78797119 2.38623779 63.87086426 2.62721191 64.98657227 2.87548828 C68.24826043 3.60534502 71.50796032 4.3437184 74.76757812 5.08276367 C75.90001953 5.33477539 77.03246094 5.58678711 78.19921875 5.84643555 C84.26367366 7.22745003 89.9391087 8.81918423 95.70507812 11.14526367 C96.93226563 11.58225586 98.15945313 12.01924805 99.42382812 12.46948242 C122.4580067 20.71281641 145.06993726 33.21948726 163.70507812 49.14526367 C163.70507812 49.80526367 163.70507812 50.46526367 163.70507812 51.14526367 C164.42695312 51.37213867 165.14882813 51.59901367 165.89257812 51.83276367 C169.30126003 53.42348189 171.08312914 55.44079269 173.70507812 58.14526367 C174.75445458 59.17667079 175.8066601 60.20520559 176.86132812 61.23120117 C177.97597579 62.32748993 179.09055822 63.42384502 180.20507812 64.52026367 C180.76066406 65.0590918 181.31625 65.59791992 181.88867188 66.15307617 C185.19395779 69.41947637 187.95386832 72.75513463 190.57910156 76.58666992 C191.74274999 78.28557308 191.74274999 78.28557308 193.62695312 80.05932617 C203.16046694 89.62868027 210.36476611 102.33169085 216.70507812 114.14526367 C217.37453748 115.32372257 218.04646309 116.50078344 218.72070312 117.67651367 C224.22991186 127.42619933 228.12434198 137.551554 231.70507812 148.14526367 C232.09566406 149.28866211 232.48625 150.43206055 232.88867188 151.61010742 C236.23745889 161.94313506 239.0168098 172.81592711 240.25585938 183.62573242 C240.31677444 186.9609235 240.31677444 186.9609235 241.70507812 188.14526367 C241.81456288 189.90121874 241.85416996 191.66157467 241.86621094 193.42089844 C241.87581848 194.55040421 241.88542603 195.67990997 241.89532471 196.84364319 C241.89957458 198.07884201 241.90382446 199.31404083 241.90820312 200.58666992 C241.9139032 201.85687485 241.91960327 203.12707977 241.92547607 204.43577576 C241.93495305 207.14032568 241.94183364 209.84476403 241.9453125 212.54931641 C241.94965856 215.29489722 241.96338993 218.04015694 241.98632812 220.78564453 C242.22183143 249.5158958 242.22183143 249.5158958 238.70507812 263.14526367 C238.38338806 264.63296802 238.06386046 266.12114453 237.74804688 267.61010742 C235.34466001 277.36632169 232.18638265 286.7252632 228.70507812 296.14526367 C227.91279753 298.33254139 227.12103618 300.52000735 226.33007812 302.70776367 C225.7892852 304.18725001 225.24801382 305.66656234 224.70507812 307.14526367 C224.04507813 307.14526367 223.38507812 307.14526367 222.70507812 307.14526367 C222.5890625 307.86327148 222.47304688 308.5812793 222.35351562 309.32104492 C217.87850539 328.81160154 200.79155493 348.70699695 187.70507812 363.14526367 C186.98449219 363.95737305 186.26390625 364.76948242 185.52148438 365.60620117 C177.78971898 374.28976906 169.86076894 381.95944182 160.70507812 389.14526367 C160.11549316 389.61125977 159.5259082 390.07725586 158.91845703 390.55737305 C146.12527453 400.61129379 132.52535306 409.35718487 117.70507812 416.14526367 C116.81006592 416.55687744 116.81006592 416.55687744 115.89697266 416.97680664 C108.69121127 420.27101974 101.56608631 423.45021598 93.90429688 425.53979492 C91.75434872 426.13169894 89.6812168 426.83770699 87.58007812 427.58276367 C76.79072575 431.19187802 65.90562123 433.47951829 54.61914062 434.75073242 C51.77413553 434.97608088 51.77413553 434.97608088 49.70507812 436.14526367 C48.12947447 436.24546044 46.54971839 436.28359733 44.97094727 436.29052734 C43.98554459 436.2969072 43.00014191 436.30328705 41.98487854 436.30986023 C40.91414597 436.31097305 39.84341339 436.31208588 38.74023438 436.31323242 C37.63715439 436.31656082 36.5340744 436.31988922 35.39756775 436.32331848 C33.05468157 436.32839152 30.71178815 436.33072669 28.36889648 436.33056641 C24.81351443 436.33273564 21.25845139 436.35083946 17.703125 436.36987305 C15.42382918 436.37281048 13.14453189 436.37479293 10.86523438 436.37573242 C9.81271988 436.38291794 8.76020538 436.39010345 7.67579651 436.39750671 C0.80895028 436.37666698 -5.58385828 435.57030869 -12.29492188 434.14526367 C-13.54660156 433.9106543 -14.79828125 433.67604492 -16.08789062 433.43432617 C-40.34006218 428.68994278 -40.34006218 428.68994278 -51.29492188 424.14526367 C-52.37773438 423.73663086 -53.46054687 423.32799805 -54.57617188 422.90698242 C-62.82077297 419.76975251 -70.53424044 416.05737043 -78.24804688 411.78198242 C-81.21235774 410.07813984 -81.21235774 410.07813984 -84.29492188 409.14526367 C-84.29492188 408.48526367 -84.29492188 407.82526367 -84.29492188 407.14526367 C-85.13667969 406.90936523 -85.9784375 406.6734668 -86.84570312 406.43041992 C-90.82759789 404.94679209 -93.99188707 402.96869313 -97.48242188 400.58276367 C-98.13879639 400.13876221 -98.7951709 399.69476074 -99.47143555 399.23730469 C-108.23380283 393.23019732 -116.18052895 386.3560561 -124.01757812 379.19995117 C-125.96868348 377.43960569 -127.95505731 375.75342044 -129.98242188 374.08276367 C-133.84505383 370.78473917 -137.02597731 367.01956835 -140.29492188 363.14526367 C-141.13152344 362.19651367 -141.968125 361.24776367 -142.83007812 360.27026367 C-147.95465222 354.42012655 -152.65776354 348.4271903 -156.98242188 341.95776367 C-157.41659424 341.3099292 -157.8507666 340.66209473 -158.2980957 339.99462891 C-161.29492188 335.40977237 -161.29492188 335.40977237 -161.29492188 333.14526367 C-161.95492187 333.14526367 -162.61492188 333.14526367 -163.29492188 333.14526367 C-163.71902344 332.28545898 -164.143125 331.4256543 -164.58007812 330.53979492 C-165.45986328 328.76668945 -165.45986328 328.76668945 -166.35742188 326.95776367 C-166.6688916 326.3293457 -166.98036133 325.70092773 -167.30126953 325.0534668 C-170.00746255 319.63294183 -172.91606912 314.34934564 -175.91210938 309.08276367 C-177.33777422 306.05423271 -177.91062515 303.45612779 -178.29492188 300.14526367 C-178.95492188 300.14526367 -179.61492187 300.14526367 -180.29492188 300.14526367 C-180.58882812 301.53358398 -180.58882812 301.53358398 -180.88867188 302.94995117 C-183.64849894 315.50333121 -187.43400728 327.69770027 -191.29125977 339.95092773 C-194.37613654 349.76910524 -197.31814845 359.61446251 -200.09375 369.52416992 C-201.24502392 373.5979084 -202.43733571 377.63774138 -203.80273438 381.64526367 C-204.88069592 384.81380672 -205.82199403 387.99082697 -206.68945312 391.22338867 C-206.92341797 392.07416992 -207.15738281 392.92495117 -207.3984375 393.80151367 C-207.87427048 395.54230209 -208.33504236 397.28727205 -208.78125 399.03588867 C-210.44346323 404.94598015 -212.16034869 407.71764472 -217.29492188 411.14526367 C-220.74259071 412.86909809 -224.71954985 412.30172994 -228.51464844 412.30639648 C-229.47090622 412.31136139 -230.427164 412.31632629 -231.41239929 412.32144165 C-234.58678906 412.33608723 -237.76112882 412.34286987 -240.93554688 412.34838867 C-243.13791913 412.35413891 -245.34029136 412.35989666 -247.54266357 412.36566162 C-252.16630283 412.37617895 -256.78992467 412.38201657 -261.41357422 412.38549805 C-267.33640582 412.39097905 -273.25900709 412.41499572 -279.18176651 412.44347 C-283.73369008 412.46210189 -288.2855583 412.46730232 -292.83751678 412.46883392 C-295.02078254 412.4718606 -297.20404732 412.4798896 -299.3872757 412.4930191 C-302.44423371 412.510088 -305.50063075 412.50819692 -308.55761719 412.50170898 C-309.45862656 412.51092377 -310.35963593 412.52013855 -311.28794861 412.52963257 C-317.18812887 412.49043813 -321.73485997 411.73339643 -326.07617188 407.34448242 C-327.60404439 404.58745606 -328.17493843 402.04660975 -328.79492188 398.95776367 C-329.78263441 394.35185031 -330.93808112 389.98023335 -332.49023438 385.53979492 C-334.30418647 380.14196659 -335.75252844 374.62568291 -337.29492188 369.14526367 C-338.33307001 365.45676 -339.37551617 361.76949992 -340.41992188 358.08276367 C-340.67362549 357.17816406 -340.9273291 356.27356445 -341.1887207 355.34155273 C-342.37256521 351.16622273 -343.67902976 347.17459122 -345.29492188 343.14526367 C-345.80833556 341.07010468 -346.28554039 338.98576012 -346.73242188 336.89526367 C-347.76053291 332.30988845 -348.94349327 327.90631679 -350.49023438 323.47338867 C-353.74634807 314.0527879 -356.38676232 304.41881922 -359.10083008 294.83178711 C-360.53749822 289.76232538 -362.02073531 284.7099901 -363.54272461 279.66552734 C-365.09657023 274.45931236 -366.562549 269.22764095 -368.04492188 264.00073242 C-369.26650858 259.70609168 -370.50664629 255.41924216 -371.79882812 251.14526367 C-372.82402878 247.74882793 -373.80871326 244.34445736 -374.75976562 240.92651367 C-375.00275391 240.05639648 -375.24574219 239.1862793 -375.49609375 238.28979492 C-375.98669916 236.52777974 -376.47368452 234.76475258 -376.95703125 233.00073242 C-379.70968295 221.00638552 -379.70968295 221.00638552 -387.29492188 212.14526367 C-389.74426595 211.71087558 -389.74426595 211.71087558 -392.29492188 211.83276367 C-393.14054687 211.83663086 -393.98617188 211.84049805 -394.85742188 211.84448242 C-397.50043869 212.17062392 -399.10031337 212.63737074 -401.29492188 214.14526367 C-402.31904331 215.93149039 -402.31904331 215.93149039 -402.85742188 218.08276367 C-403.09589844 218.88584961 -403.334375 219.68893555 -403.58007812 220.51635742 C-403.81597656 221.38389648 -404.051875 222.25143555 -404.29492188 223.14526367 C-404.54113281 224.04374023 -404.78734375 224.9422168 -405.04101562 225.86791992 C-405.54724186 227.73282591 -406.04979641 229.59873213 -406.54882812 231.46557617 C-407.42179413 234.60094099 -408.44191214 237.66670415 -409.49023438 240.74682617 C-412.6784542 250.24957848 -415.39547366 259.89797054 -418.10083008 269.54663086 C-419.24708788 273.60669366 -420.43483985 277.63434661 -421.79101562 281.62963867 C-423.47227889 286.58551572 -424.88661242 291.60615641 -426.29492188 296.64526367 C-427.91282146 302.43431063 -429.61242523 308.16244152 -431.54492188 313.85424805 C-432.92790342 318.07882448 -434.09864378 322.36483113 -435.29492188 326.64526367 C-436.89324887 332.36427745 -438.55635924 338.03341459 -440.46435547 343.65698242 C-442.26210499 349.04283283 -443.92340274 354.47302162 -445.60742188 359.89526367 C-445.80434631 360.52855591 -446.00127075 361.16184814 -446.2041626 361.81433105 C-449.04517473 370.96113053 -451.78971205 380.13053015 -454.35473633 389.35913086 C-459.52857349 407.89725905 -459.52857349 407.89725905 -465.15901375 411.2578764 C-467.46389753 412.21546652 -469.04743527 412.39893431 -471.5319519 412.40596008 C-472.37019501 412.41304489 -473.20843811 412.4201297 -474.07208252 412.4274292 C-474.983349 412.42495178 -475.89461548 412.42247437 -476.83349609 412.41992188 C-478.2829512 412.42758827 -478.2829512 412.42758827 -479.76168823 412.43540955 C-482.95772486 412.44931555 -486.15354607 412.44834787 -489.34960938 412.44604492 C-491.57154419 412.44993154 -493.79347827 412.45426614 -496.01541138 412.45903015 C-500.67419848 412.46649472 -505.33290981 412.46619953 -509.99169922 412.4609375 C-515.95933327 412.45514526 -521.92665672 412.47206699 -527.89423943 412.49528217 C-532.48391532 412.51002119 -537.07351646 412.51089092 -541.66321182 412.50777245 C-543.86321757 412.50828566 -546.0632275 412.51352339 -548.2632103 412.52358437 C-551.341531 412.53593323 -554.41924742 412.52916587 -557.49755859 412.51757812 C-558.40477661 412.52522186 -559.31199463 412.5328656 -560.2467041 412.54074097 C-565.34134783 412.49839453 -568.89217246 412.00098989 -573.29492188 409.14526367 C-575.9822363 405.63798917 -577.08271947 402.00393177 -578.23242188 397.77026367 C-578.57015625 396.54178711 -578.90789062 395.31331055 -579.25585938 394.04760742 C-579.9543485 391.43715229 -580.64457707 388.82453659 -581.33398438 386.21166992 C-581.50551025 385.56311035 -581.67703613 384.91455078 -581.85375977 384.24633789 C-582.33008505 382.43662504 -582.79905702 380.6249814 -583.26757812 378.81323242 C-584.02261838 376.11748035 -584.83024361 373.49918755 -585.72851562 370.85229492 C-587.72715387 364.95283593 -589.3688289 358.9589401 -591.04492188 352.96166992 C-592.45131251 347.97337814 -593.95537473 343.04159341 -595.62060547 338.13354492 C-598.53471867 329.54102577 -601.01233988 320.79359324 -603.54492188 312.08276367 C-603.8153833 311.16591797 -604.08584473 310.24907227 -604.36450195 309.30444336 C-604.61482178 308.4359375 -604.8651416 307.56743164 -605.12304688 306.67260742 C-605.34895508 305.89651123 -605.57486328 305.12041504 -605.80761719 304.32080078 C-606.29492188 302.14526367 -606.29492188 302.14526367 -606.29492188 298.14526367 C-606.95492187 298.14526367 -607.61492187 298.14526367 -608.29492188 298.14526367 C-608.46725342 297.42330811 -608.63958496 296.70135254 -608.81713867 295.95751953 C-610.6473276 288.44643385 -612.78598302 281.08006005 -615.10742188 273.70776367 C-617.96709809 264.53316174 -620.72446169 255.34043258 -623.30395508 246.08300781 C-624.3756735 242.25880568 -625.49898414 238.47296898 -626.77539062 234.71166992 C-628.75878639 228.85979063 -630.38227805 222.91081737 -632.04492188 216.96166992 C-633.21151885 212.82389627 -634.41261719 208.71658294 -635.79492188 204.64526367 C-637.77395944 198.81637961 -639.38852379 192.88846933 -641.04492188 186.96166992 C-642.21120684 182.82500294 -643.41202712 178.719076 -644.79492188 174.64916992 C-646.78375567 168.7927277 -648.39514888 162.83272499 -650.04492188 156.8737793 C-651.16060478 152.90206437 -652.30257736 148.99320015 -653.79492188 145.14526367 C-655.62506021 140.42634252 -656.9454849 135.58190193 -658.29492188 130.70776367 C-659.92690726 124.83856622 -661.63053901 119.02524667 -663.58935547 113.25634766 C-664.67981699 109.99364152 -665.647307 106.6982543 -666.60742188 103.39526367 C-666.81544434 102.68499023 -667.0234668 101.9747168 -667.23779297 101.24291992 C-668.4577826 97.06420819 -669.65710947 92.87988392 -670.84570312 88.69213867 C-671.10762451 87.77013672 -671.3695459 86.84813477 -671.6394043 85.89819336 C-672.14555401 84.11297468 -672.64974383 82.32719872 -673.15161133 80.54077148 C-674.50270229 75.76873485 -675.97024644 71.06058663 -677.56298828 66.36401367 C-679.03681148 61.89633348 -680.29001187 57.36119708 -681.57617188 52.83666992 C-682.38217499 49.20009901 -682.38217499 49.20009901 -684.29492188 46.14526367 C-684.50283539 43.54337451 -684.61946284 41.00078497 -684.66992188 38.39526367 C-684.70730469 37.67854492 -684.7446875 36.96182617 -684.78320312 36.22338867 C-684.85069075 32.14413638 -684.49860504 30.39605271 -681.89648438 27.19213867 C-677.56723771 23.7859446 -674.23729427 23.97994672 -668.90136719 23.95239258 C-668.03289154 23.94421509 -667.16441589 23.9360376 -666.2696228 23.9276123 C-663.38743788 23.90274316 -660.50530229 23.88623771 -657.62304688 23.87182617 C-656.63943932 23.86650249 -655.65583176 23.86117882 -654.64241791 23.85569382 C-649.43544799 23.82895462 -644.2285021 23.80958287 -639.02148438 23.79516602 C-633.6432793 23.77852339 -628.26568762 23.7337509 -622.88771439 23.68279457 C-618.75269875 23.6491344 -614.61782885 23.63758987 -610.4826889 23.63193893 C-608.50034654 23.62522223 -606.51801391 23.60998931 -604.53580475 23.58604813 C-601.75871367 23.55442239 -598.98327863 23.55435594 -596.20605469 23.56176758 C-595.38920197 23.54536224 -594.57234924 23.52895691 -593.73074341 23.51205444 C-589.66132232 23.55644207 -587.08808403 23.89973366 -583.86297607 26.49423218 C-580.4077689 30.06108176 -579.01408586 32.70136845 -577.91992188 37.45776367 C-574.94461344 49.86734156 -571.15444046 62.04574301 -567.33007812 74.21557617 C-565.18801009 81.08051709 -563.20684148 87.97772655 -561.2956543 94.90942383 C-559.61165288 101.01593219 -557.9017115 107.11462987 -556.16992188 113.20776367 C-555.92838379 114.06370117 -555.6868457 114.91963867 -555.43798828 115.80151367 C-554.31016214 119.76009853 -553.13270023 123.6832162 -551.80273438 127.57885742 C-549.75388185 133.62781897 -548.18125547 139.80304742 -546.54492188 145.97338867 C-545.19600959 151.0037074 -543.72813591 155.9482171 -542.04492188 160.8762207 C-540.65829618 165.07130507 -539.48959668 169.32984581 -538.29492188 173.58276367 C-536.82608971 178.78870269 -535.35117983 183.990442 -533.78710938 189.16870117 C-532.52658235 193.34327491 -531.32957374 197.53285146 -530.15185547 201.73144531 C-528.08322354 209.08343772 -525.9857463 216.42932735 -523.66992188 223.70776367 C-523.30640625 224.86405273 -522.94289063 226.0203418 -522.56835938 227.21166992 C-520.91986051 231.00928539 -518.77031649 233.11248744 -515.41992188 235.45776367 C-511.5185255 236.71998015 -508.3483776 235.6533821 -504.75195312 233.91870117 C-496.09977179 227.6737245 -493.87935684 207.6868738 -491.07324219 197.85424805 C-489.02588844 190.72832671 -486.82028943 183.66021538 -484.41992188 176.64526367 C-482.19582019 170.06965868 -480.338253 163.39455314 -478.48876953 156.70581055 C-477.39471646 152.79272053 -476.26849101 148.94683854 -474.79882812 145.15698242 C-472.96776335 140.43391765 -471.6454824 135.58596014 -470.29492188 130.70776367 C-468.68080663 124.9028336 -467.00923526 119.14482252 -465.07177734 113.43896484 C-461.02587932 101.49326657 -457.27622739 89.4743452 -454.12304688 77.26245117 C-453.03095215 73.15164178 -451.69829751 69.15793069 -450.29492188 65.14526367 C-448.20585217 58.98294508 -446.17894549 52.81112409 -444.29492188 46.58276367 C-443.00788025 42.39987838 -441.70533851 38.22586252 -440.29492188 34.08276367 C-440.00617188 33.22553711 -439.71742188 32.36831055 -439.41992188 31.48510742 C-438.09951752 28.73884976 -436.60953695 27.11356323 -434.29492188 25.14526367 C-430.59854258 23.91313724 -427.17272261 23.98974328 -423.32275391 23.98413086 C-422.51104736 23.97916595 -421.69934082 23.97420105 -420.86303711 23.96908569 C-418.17626093 23.95447383 -415.48954377 23.94766394 -412.80273438 23.94213867 C-410.93569945 23.93638672 -409.06866453 23.93062899 -407.20162964 23.92486572 C-403.28594691 23.91435873 -399.37028469 23.90851398 -395.45458984 23.9050293 C-390.43856187 23.89954308 -385.42280514 23.87551106 -380.40686226 23.84705734 C-376.54982715 23.8284294 -372.69285739 23.82322529 -368.8357811 23.82169342 C-366.98661693 23.81866707 -365.13745391 23.81063912 -363.28833389 23.79750824 C-360.70063911 23.78044331 -358.11360721 23.7823289 -355.52587891 23.78881836 C-354.76310638 23.77960358 -354.00033386 23.77038879 -353.21444702 23.76089478 C-347.44262832 23.80621118 -344.36060358 25.261848 -340.16992188 29.08276367 C-337.89746018 32.7944511 -337.15226804 36.18041687 -336.19726562 40.40307617 C-335.12426914 44.85299231 -333.81906755 49.20620384 -332.48242188 53.58276367 C-329.56917332 63.17817414 -326.79477184 72.80874917 -324.05810547 82.45581055 C-322.74516835 87.08259086 -321.42660747 91.7077618 -320.10742188 96.33276367 C-319.86958984 97.16928467 -319.63175781 98.00580566 -319.38671875 98.86767578 C-318.22143538 102.95473585 -317.03378252 107.03335073 -315.80664062 111.10229492 C-313.98498091 117.14563482 -312.26704798 123.21750652 -310.54492188 129.28979492 C-309.09353431 134.39232933 -307.60335567 139.48079382 -306.07177734 144.55981445 C-304.64424622 149.31077441 -303.24996786 154.07145132 -301.85742188 158.83276367 C-301.55030273 159.88206055 -301.24318359 160.93135742 -300.92675781 162.01245117 C-299.22065056 167.87122709 -297.57534027 173.73826417 -296.04492188 179.64526367 C-295.07794502 183.35614064 -294.07257116 186.95114617 -292.66992188 190.52026367 C-291.35500422 193.98686476 -290.56807235 197.26626794 -289.81835938 200.87963867 C-289.13150452 203.85259252 -288.14684958 206.67948696 -287.14648438 209.55932617 C-286.09584437 212.74980178 -285.19854105 215.97266905 -284.29492188 219.20776367 C-282.84963841 224.30487023 -281.39457788 229.2778793 -279.29492188 234.14526367 C-278.63492187 234.47526367 -277.97492188 234.80526367 -277.29492188 235.14526367 C-277.29492188 235.80526367 -277.29492188 236.46526367 -277.29492188 237.14526367 C-275.40037816 237.2540413 -273.50400433 237.3312054 -271.60742188 237.39526367 C-270.55167969 237.44166992 -269.4959375 237.48807617 -268.40820312 237.53588867 C-264.43201466 237.03699426 -263.0045455 236.0880735 -260.29492188 233.14526367 C-259.21098395 230.52144568 -258.39225995 228.17204188 -257.66992188 225.45776367 C-257.25390932 224.01096085 -256.83724771 222.56434448 -256.41992188 221.11791992 C-256.2265625 220.42714355 -256.03320312 219.73636719 -255.83398438 219.0246582 C-255.1916102 216.78507651 -254.44652038 214.59158132 -253.66992188 212.39526367 C-252.20047397 208.07772852 -251.16230413 203.67694025 -250.13867188 199.23510742 C-249.31025091 196.20139918 -248.22539227 193.33334062 -247.09765625 190.40087891 C-245.56090553 186.08274025 -244.45929589 181.63784295 -243.29492188 177.20776367 C-241.50685949 170.43268355 -239.56306178 163.77466775 -237.29492188 157.14526367 C-234.13196911 147.35166906 -231.21010778 137.50260256 -228.43823242 127.59155273 C-227.31134343 123.58672111 -226.14105245 119.61619838 -224.80273438 115.67651367 C-222.81236766 109.81054307 -221.19723768 103.84190955 -219.54492188 97.8737793 C-218.23809665 93.22161764 -216.79156696 88.71506371 -215.04492188 84.21142578 C-213.55872473 80.11712682 -212.45646893 75.90324742 -211.29492188 71.70776367 C-209.89000143 66.65517216 -208.48592148 61.62114644 -206.79101562 56.65698242 C-205.68699183 53.41279019 -204.72337438 50.15692646 -203.83007812 46.84838867 C-203.4655957 45.50454102 -203.4655957 45.50454102 -203.09375 44.13354492 C-202.59920555 42.29441674 -202.11232958 40.4532108 -201.6328125 38.61010742 C-200.10193399 33.02785388 -198.68442278 28.44363601 -193.66113281 25.03741455 C-190.26437987 23.75671042 -186.95690555 23.86704907 -183.37695312 23.88647461 C-182.5830014 23.88296997 -181.78904968 23.87946533 -180.97103882 23.87585449 C-178.34974392 23.86706064 -175.72871947 23.87287802 -173.10742188 23.87963867 C-171.28426054 23.87829135 -169.46109956 23.87635025 -167.63793945 23.87384033 C-163.8181618 23.87089225 -159.99847771 23.87517658 -156.17871094 23.88452148 C-151.28260347 23.89591582 -146.38671527 23.88935467 -141.49061584 23.87737656 C-137.72626086 23.87014945 -133.96195786 23.87244981 -130.19760132 23.87763214 C-128.39228286 23.87896628 -126.58695968 23.87732916 -124.78164673 23.87267303 C-122.25860085 23.86759385 -119.73591006 23.87533757 -117.21289062 23.88647461 C-116.46679535 23.88242615 -115.72070007 23.87837769 -114.95199585 23.87420654 C-110.17093648 23.91330228 -107.31878913 24.56599883 -103.58789062 27.47729492 C-101.92384803 29.62396014 -101.80224824 31.14415983 -101.60742188 33.83276367 C-101.54167969 34.64100586 -101.4759375 35.44924805 -101.40820312 36.28198242 C-101.37082031 36.89686523 -101.3334375 37.51174805 -101.29492188 38.14526367 C-99.82345703 37.20166992 -99.82345703 37.20166992 -98.32226562 36.23901367 C-81.4811606 25.52118114 -63.2398839 14.37972 -43.63867188 9.71557617 C-41.42771035 9.17757553 -39.36772574 8.48797085 -37.23242188 7.70776367 C-32.64370668 6.13662749 -27.95987927 5.07874987 -23.23242188 4.02026367 C-22.47630615 3.84954346 -21.72019043 3.67882324 -20.94116211 3.50292969 C-17.23305485 2.69239901 -13.57116606 2.02251685 -9.79882812 1.59057617 C-5.97565561 1.10468803 -4.03417722 0.01536215 0 0 Z M-22.29492188 74.14526367 C-23.50792969 74.54745117 -24.7209375 74.94963867 -25.97070312 75.36401367 C-47.15109291 82.82606292 -65.13905116 94.67405371 -81.29492188 110.14526367 C-81.78025391 110.60336426 -82.26558594 111.06146484 -82.765625 111.53344727 C-89.48107039 117.88962084 -95.18799015 124.44075631 -100.29492188 132.14526367 C-100.69598145 132.745 -101.09704102 133.34473633 -101.51025391 133.96264648 C-107.5252815 143.02051677 -112.37997599 151.97164177 -116.29492188 162.14526367 C-116.58753906 162.86842773 -116.88015625 163.5915918 -117.18164062 164.33666992 C-121.29520657 174.76205663 -123.99027121 185.37128106 -125.54492188 196.45776367 C-125.71185547 197.64490967 -125.87878906 198.83205566 -126.05078125 200.05517578 C-130.27589456 231.61634107 -123.18393802 264.07788429 -108.29492188 292.14526367 C-107.63492188 292.14526367 -106.97492187 292.14526367 -106.29492188 292.14526367 C-106.06933594 292.98573242 -105.84375 293.82620117 -105.61132812 294.69213867 C-104.03882169 298.81705171 -101.87703455 301.89493505 -99.23242188 305.39526367 C-98.74 306.05494141 -98.24757813 306.71461914 -97.74023438 307.39428711 C-93.55473401 312.93439708 -89.10240077 318.13303696 -84.29492188 323.14526367 C-83.46605469 324.03729492 -82.6371875 324.92932617 -81.78320312 325.84838867 C-74.92508815 333.01687089 -67.55924683 338.7058602 -59.29492188 344.14526367 C-58.72950684 344.518125 -58.1640918 344.89098633 -57.58154297 345.27514648 C-46.08105711 352.77735131 -34.25468685 357.73039868 -21.29492188 362.14526367 C-20.62775146 362.38897705 -19.96058105 362.63269043 -19.27319336 362.88378906 C11.76928263 373.90649581 47.41698313 370.8855743 77.70507812 359.14526367 C78.76339844 358.7559668 79.82171875 358.36666992 80.91210938 357.96557617 C117.79855903 343.64553548 146.37380019 313.6893441 162.70507812 278.14526367 C164.66808527 273.5720793 166.24312648 268.90080752 167.70507812 264.14526367 C168.07246094 263.01991211 168.43984375 261.89456055 168.81835938 260.73510742 C180.05174167 224.50234345 175.04649496 181.98682459 157.97460938 148.54760742 C155.94737959 144.71146491 153.84688196 140.91848404 151.70507812 137.14526367 C151.04507812 137.14526367 150.38507813 137.14526367 149.70507812 137.14526367 C149.53069214 136.25665649 149.53069214 136.25665649 149.3527832 135.35009766 C148.66797575 133.01896457 147.85594083 131.74677433 146.34179688 129.86791992 C145.86677734 129.27172852 145.39175781 128.67553711 144.90234375 128.0612793 C144.15500977 127.14378906 144.15500977 127.14378906 143.39257812 126.20776367 C142.66264648 125.29607422 142.66264648 125.29607422 141.91796875 124.3659668 C140.96394402 123.17568292 140.00556133 121.98887657 139.04248047 120.8059082 C137.82499866 119.29416829 136.64743039 117.7505023 135.47460938 116.20385742 C134.89066406 115.52452148 134.30671875 114.84518555 133.70507812 114.14526367 C133.04507812 114.14526367 132.38507813 114.14526367 131.70507812 114.14526367 C131.30289063 113.18620117 131.30289063 113.18620117 130.89257812 112.20776367 C129.8184006 109.81394681 129.8184006 109.81394681 126.70507812 109.14526367 C126.37507812 108.15526367 126.04507813 107.16526367 125.70507812 106.14526367 C123.63779058 104.31979864 121.57913501 102.62844956 119.39257812 100.95776367 C118.76319336 100.47162598 118.13380859 99.98548828 117.48535156 99.48461914 C90.19432632 78.61460763 58.90168883 67.65864673 24.58007812 67.83276367 C23.51055908 67.83450089 23.51055908 67.83450089 22.41943359 67.83627319 C7.03923296 67.88542013 -7.73331501 68.96510748 -22.29492188 74.14526367 Z " fill="#FDFDFE" transform="translate(705.294921875,10.854736328125)"/>
<path d="M0 0 C1.13207886 -0.00637985 2.26415771 -0.0127597 3.43054199 -0.01933289 C4.66582642 -0.02044571 5.90111084 -0.02155853 7.17382812 -0.02270508 C8.43843872 -0.02603348 9.70304932 -0.02936188 11.00598145 -0.03279114 C13.69282525 -0.03786842 16.37956806 -0.04063027 19.06640625 -0.04003906 C22.48799932 -0.03993814 25.90938158 -0.05351197 29.33092499 -0.07081127 C32.61188449 -0.08470914 35.89284322 -0.08402339 39.17382812 -0.08520508 C41.00246399 -0.09598335 41.00246399 -0.09598335 42.86804199 -0.10697937 C49.45191871 -0.08947637 55.35759173 0.41099735 61.70507812 2.14526367 C63.32941772 2.50672485 63.32941772 2.50672485 64.98657227 2.87548828 C68.24826043 3.60534502 71.50796032 4.3437184 74.76757812 5.08276367 C75.90001953 5.33477539 77.03246094 5.58678711 78.19921875 5.84643555 C84.26367366 7.22745003 89.9391087 8.81918423 95.70507812 11.14526367 C96.93226563 11.58225586 98.15945313 12.01924805 99.42382812 12.46948242 C122.4580067 20.71281641 145.06993726 33.21948726 163.70507812 49.14526367 C163.70507812 49.80526367 163.70507812 50.46526367 163.70507812 51.14526367 C164.42695312 51.37213867 165.14882813 51.59901367 165.89257812 51.83276367 C169.30126003 53.42348189 171.08312914 55.44079269 173.70507812 58.14526367 C174.75445458 59.17667079 175.8066601 60.20520559 176.86132812 61.23120117 C177.97597579 62.32748993 179.09055822 63.42384502 180.20507812 64.52026367 C180.76066406 65.0590918 181.31625 65.59791992 181.88867188 66.15307617 C185.19395779 69.41947637 187.95386832 72.75513463 190.57910156 76.58666992 C191.74274999 78.28557308 191.74274999 78.28557308 193.62695312 80.05932617 C203.16046694 89.62868027 210.36476611 102.33169085 216.70507812 114.14526367 C217.37453748 115.32372257 218.04646309 116.50078344 218.72070312 117.67651367 C224.22991186 127.42619933 228.12434198 137.551554 231.70507812 148.14526367 C232.09566406 149.28866211 232.48625 150.43206055 232.88867188 151.61010742 C236.23745889 161.94313506 239.0168098 172.81592711 240.25585938 183.62573242 C240.31677444 186.9609235 240.31677444 186.9609235 241.70507812 188.14526367 C241.81456288 189.90121874 241.85416996 191.66157467 241.86621094 193.42089844 C241.87581848 194.55040421 241.88542603 195.67990997 241.89532471 196.84364319 C241.90169952 198.69644142 241.90169952 198.69644142 241.90820312 200.58666992 C241.9139032 201.85687485 241.91960327 203.12707977 241.92547607 204.43577576 C241.93495305 207.14032568 241.94183364 209.84476403 241.9453125 212.54931641 C241.94965856 215.29489722 241.96338993 218.04015694 241.98632812 220.78564453 C242.22183143 249.5158958 242.22183143 249.5158958 238.70507812 263.14526367 C238.38338806 264.63296802 238.06386046 266.12114453 237.74804688 267.61010742 C235.34466001 277.36632169 232.18638265 286.7252632 228.70507812 296.14526367 C227.91279753 298.33254139 227.12103618 300.52000735 226.33007812 302.70776367 C225.7892852 304.18725001 225.24801382 305.66656234 224.70507812 307.14526367 C224.04507812 307.14526367 223.38507813 307.14526367 222.70507812 307.14526367 C222.5890625 307.86327148 222.47304688 308.5812793 222.35351562 309.32104492 C217.87850539 328.81160154 200.79155493 348.70699695 187.70507812 363.14526367 C186.98449219 363.95737305 186.26390625 364.76948242 185.52148438 365.60620117 C177.78971898 374.28976906 169.86076894 381.95944182 160.70507812 389.14526367 C160.11549316 389.61125977 159.5259082 390.07725586 158.91845703 390.55737305 C146.12527453 400.61129379 132.52535306 409.35718487 117.70507812 416.14526367 C116.81006592 416.55687744 116.81006592 416.55687744 115.89697266 416.97680664 C108.69121127 420.27101974 101.56608631 423.45021598 93.90429688 425.53979492 C91.75434872 426.13169894 89.6812168 426.83770699 87.58007812 427.58276367 C76.79072575 431.19187802 65.90562123 433.47951829 54.61914062 434.75073242 C51.77413553 434.97608088 51.77413553 434.97608088 49.70507812 436.14526367 C48.12947447 436.24546044 46.54971839 436.28359733 44.97094727 436.29052734 C43.98554459 436.2969072 43.00014191 436.30328705 41.98487854 436.30986023 C40.91414597 436.31097305 39.84341339 436.31208588 38.74023438 436.31323242 C37.63715439 436.31656082 36.5340744 436.31988922 35.39756775 436.32331848 C33.05468157 436.32839152 30.71178815 436.33072669 28.36889648 436.33056641 C24.81351443 436.33273564 21.25845139 436.35083946 17.703125 436.36987305 C15.42382918 436.37281048 13.14453189 436.37479293 10.86523438 436.37573242 C9.81271988 436.38291794 8.76020538 436.39010345 7.67579651 436.39750671 C0.80895028 436.37666698 -5.58385828 435.57030869 -12.29492188 434.14526367 C-13.54660156 433.9106543 -14.79828125 433.67604492 -16.08789062 433.43432617 C-40.34006218 428.68994278 -40.34006218 428.68994278 -51.29492188 424.14526367 C-52.91914062 423.53231445 -52.91914062 423.53231445 -54.57617188 422.90698242 C-62.82077297 419.76975251 -70.53424044 416.05737043 -78.24804688 411.78198242 C-81.21235774 410.07813984 -81.21235774 410.07813984 -84.29492188 409.14526367 C-84.29492188 408.48526367 -84.29492188 407.82526367 -84.29492188 407.14526367 C-85.13667969 406.90936523 -85.9784375 406.6734668 -86.84570312 406.43041992 C-90.82759789 404.94679209 -93.99188707 402.96869313 -97.48242188 400.58276367 C-98.13879639 400.13876221 -98.7951709 399.69476074 -99.47143555 399.23730469 C-108.23380283 393.23019732 -116.18052895 386.3560561 -124.01757812 379.19995117 C-125.96868348 377.43960569 -127.95505731 375.75342044 -129.98242188 374.08276367 C-133.84505383 370.78473917 -137.02597731 367.01956835 -140.29492188 363.14526367 C-141.13152344 362.19651367 -141.968125 361.24776367 -142.83007812 360.27026367 C-147.95465222 354.42012655 -152.65776354 348.4271903 -156.98242188 341.95776367 C-157.41659424 341.3099292 -157.8507666 340.66209473 -158.2980957 339.99462891 C-161.29492188 335.40977237 -161.29492188 335.40977237 -161.29492188 333.14526367 C-161.95492187 333.14526367 -162.61492188 333.14526367 -163.29492188 333.14526367 C-163.71902344 332.28545898 -164.143125 331.4256543 -164.58007812 330.53979492 C-165.16660156 329.35772461 -165.753125 328.1756543 -166.35742188 326.95776367 C-166.6688916 326.3293457 -166.98036133 325.70092773 -167.30126953 325.0534668 C-170.00746255 319.63294183 -172.91606912 314.34934564 -175.91210938 309.08276367 C-177.33777422 306.05423271 -177.91062515 303.45612779 -178.29492188 300.14526367 C-178.95492187 300.14526367 -179.61492188 300.14526367 -180.29492188 300.14526367 C-179.96492187 296.84526367 -179.63492188 293.54526367 -179.29492188 290.14526367 C-178.63492188 290.14526367 -177.97492187 290.14526367 -177.29492188 290.14526367 C-177.13817993 289.14450806 -177.13817993 289.14450806 -176.97827148 288.12353516 C-175.82584146 281.249191 -174.07188411 274.80850838 -171.85742188 268.20776367 C-169.0384429 259.6257281 -169.0384429 259.6257281 -166.73242188 250.89526367 C-165.40162323 245.16954357 -163.47531644 239.69839029 -161.56079102 234.1484375 C-159.52918911 228.13825556 -158.04992039 222.10026584 -156.69360352 215.90820312 C-155.69103847 211.46320237 -154.30785585 207.68695871 -152.29492188 203.62963867 C-150.6146459 199.45520304 -149.7746462 195.05509129 -148.80151367 190.67382812 C-147.51774911 184.93520419 -145.9270098 179.38295559 -144.12695312 173.78198242 C-143.43200142 171.57967069 -142.8232959 169.39218756 -142.29492188 167.14526367 C-141.63492188 167.14526367 -140.97492187 167.14526367 -140.29492188 167.14526367 C-139.63492188 162.85526367 -138.97492187 158.56526367 -138.29492188 154.14526367 C-137.63492188 154.14526367 -136.97492187 154.14526367 -136.29492188 154.14526367 C-135.63492188 149.85526367 -134.97492187 145.56526367 -134.29492188 141.14526367 C-133.63492188 141.14526367 -132.97492187 141.14526367 -132.29492188 141.14526367 C-132.17117188 140.19651367 -132.04742188 139.24776367 -131.91992188 138.27026367 C-131.24727133 133.52271565 -130.26763946 128.83886214 -129.29492188 124.14526367 C-128.63492188 124.14526367 -127.97492187 124.14526367 -127.29492188 124.14526367 C-127.22015625 123.39245117 -127.14539063 122.63963867 -127.06835938 121.86401367 C-126.14548771 114.40865823 -124.29406695 107.96366809 -121.54516602 101.03564453 C-119.57492598 96.03491585 -118.14807565 91.06119774 -116.94335938 85.81713867 C-116.15306646 82.56075101 -115.07928769 79.45008598 -113.97460938 76.28979492 C-113.27639082 74.086795 -112.80367329 71.91175113 -112.35742188 69.64526367 C-111.68479983 66.36765626 -110.67213077 63.6020093 -109.23242188 60.58276367 C-107.56584783 57.06714397 -107.0618069 54.11914218 -106.64648438 50.23510742 C-105.58760934 43.94068361 -103.17282429 39.31023272 -97.93164062 35.56713867 C-93.83934333 32.87965985 -89.58478964 30.49955574 -85.29492188 28.14526367 C-84.04466711 27.43738012 -82.79465509 26.72906759 -81.54492188 26.02026367 C-69.62768768 19.37590091 -56.96125028 12.88570778 -43.63867188 9.71557617 C-41.42771035 9.17757553 -39.36772574 8.48797085 -37.23242188 7.70776367 C-32.64370668 6.13662749 -27.95987927 5.07874987 -23.23242188 4.02026367 C-22.47630615 3.84954346 -21.72019043 3.67882324 -20.94116211 3.50292969 C-17.23305485 2.69239901 -13.57116606 2.02251685 -9.79882812 1.59057617 C-5.97565561 1.10468803 -4.03417722 0.01536215 0 0 Z M-22.29492188 74.14526367 C-23.50792969 74.54745117 -24.7209375 74.94963867 -25.97070312 75.36401367 C-47.15109291 82.82606292 -65.13905116 94.67405371 -81.29492188 110.14526367 C-81.78025391 110.60336426 -82.26558594 111.06146484 -82.765625 111.53344727 C-89.48107039 117.88962084 -95.18799015 124.44075631 -100.29492188 132.14526367 C-100.69598145 132.745 -101.09704102 133.34473633 -101.51025391 133.96264648 C-107.5252815 143.02051677 -112.37997599 151.97164177 -116.29492188 162.14526367 C-116.58753906 162.86842773 -116.88015625 163.5915918 -117.18164062 164.33666992 C-121.29520657 174.76205663 -123.99027121 185.37128106 -125.54492188 196.45776367 C-125.71185547 197.64490967 -125.87878906 198.83205566 -126.05078125 200.05517578 C-130.27589456 231.61634107 -123.18393802 264.07788429 -108.29492188 292.14526367 C-107.63492188 292.14526367 -106.97492188 292.14526367 -106.29492188 292.14526367 C-106.06933594 292.98573242 -105.84375 293.82620117 -105.61132812 294.69213867 C-104.03882169 298.81705171 -101.87703455 301.89493505 -99.23242188 305.39526367 C-98.74 306.05494141 -98.24757813 306.71461914 -97.74023438 307.39428711 C-93.55473401 312.93439708 -89.10240077 318.13303696 -84.29492188 323.14526367 C-83.46605469 324.03729492 -82.6371875 324.92932617 -81.78320312 325.84838867 C-74.92508815 333.01687089 -67.55924683 338.7058602 -59.29492188 344.14526367 C-58.72950684 344.518125 -58.1640918 344.89098633 -57.58154297 345.27514648 C-46.08105711 352.77735131 -34.25468685 357.73039868 -21.29492188 362.14526367 C-20.62775146 362.38897705 -19.96058105 362.63269043 -19.27319336 362.88378906 C11.76928263 373.90649581 47.41698313 370.8855743 77.70507812 359.14526367 C78.76339844 358.7559668 79.82171875 358.36666992 80.91210938 357.96557617 C117.79855903 343.64553548 146.37380019 313.6893441 162.70507812 278.14526367 C164.66808527 273.5720793 166.24312648 268.90080752 167.70507812 264.14526367 C168.07246094 263.01991211 168.43984375 261.89456055 168.81835938 260.73510742 C180.05174167 224.50234345 175.04649496 181.98682459 157.97460938 148.54760742 C155.94737959 144.71146491 153.84688196 140.91848404 151.70507812 137.14526367 C151.04507812 137.14526367 150.38507813 137.14526367 149.70507812 137.14526367 C149.53069214 136.25665649 149.53069214 136.25665649 149.3527832 135.35009766 C148.66797575 133.01896457 147.85594083 131.74677433 146.34179688 129.86791992 C145.86677734 129.27172852 145.39175781 128.67553711 144.90234375 128.0612793 C144.15500977 127.14378906 144.15500977 127.14378906 143.39257812 126.20776367 C142.66264648 125.29607422 142.66264648 125.29607422 141.91796875 124.3659668 C140.96394402 123.17568292 140.00556133 121.98887657 139.04248047 120.8059082 C137.82499866 119.29416829 136.64743039 117.7505023 135.47460938 116.20385742 C134.89066406 115.52452148 134.30671875 114.84518555 133.70507812 114.14526367 C133.04507812 114.14526367 132.38507813 114.14526367 131.70507812 114.14526367 C131.30289063 113.18620117 131.30289063 113.18620117 130.89257812 112.20776367 C129.8184006 109.81394681 129.8184006 109.81394681 126.70507812 109.14526367 C126.37507812 108.15526367 126.04507813 107.16526367 125.70507812 106.14526367 C123.63779058 104.31979864 121.57913501 102.62844956 119.39257812 100.95776367 C118.76319336 100.47162598 118.13380859 99.98548828 117.48535156 99.48461914 C90.19432632 78.61460763 58.90168883 67.65864673 24.58007812 67.83276367 C23.51055908 67.83450089 23.51055908 67.83450089 22.41943359 67.83627319 C7.03923296 67.88542013 -7.73331501 68.96510748 -22.29492188 74.14526367 Z " fill="#E01D48" transform="translate(705.294921875,10.854736328125)"/>
<path d="M0 0 C2.74614034 1.92788631 5.43464019 3.91962409 8.12109375 5.9296875 C12.19171924 8.85700298 16.46210875 11.4099343 20.75 14.00390625 C24.89520491 16.54981936 28.92129472 19.2538949 32.95703125 21.96875 C36.5458866 24.36439157 40.17608713 26.69099723 43.81103516 29.01586914 C50.17191563 33.09411674 56.49091194 37.2362201 62.8125 41.375 C83.9106746 56.02656714 83.9106746 56.02656714 106 69 C106 69.66 106 70.32 106 71 C106.721875 71.2475 107.44375 71.495 108.1875 71.75 C115.57046511 75.03131783 119.93796439 81.16037165 123.046875 88.45703125 C126.55958909 98.9786041 125.64333489 108.92116023 121 119 C114.7946456 128.45516887 105.62672105 133.92659981 96.16162109 139.67138672 C94.03761251 140.97688194 91.94719885 142.32297537 89.86328125 143.69140625 C89.22100586 144.11276855 88.57873047 144.53413086 87.91699219 144.96826172 C86.70692696 145.76382066 85.49789225 146.56094992 84.29003906 147.35986328 C80.22322948 150 80.22322948 150 78 150 C78 150.66 78 151.32 78 152 C76.25446445 153.13669755 74.44988474 154.18312389 72.625 155.1875 C68.7248152 157.39866414 64.9565427 159.63812138 61.3125 162.25 C56.89795586 165.41234172 52.37911182 168.3768936 47.8125 171.3125 C42.40701466 174.78940104 37.02534413 178.29507616 31.6875 181.875 C23.29927459 187.49431862 14.83030738 192.98767701 6.35351562 198.47216797 C4.18338505 199.8809519 2.02014286 201.29956989 -0.140625 202.72265625 C-1.36457144 203.52345568 -2.58852894 204.3242382 -3.8125 205.125 C-4.85019531 205.80820312 -5.88789062 206.49140625 -6.95703125 207.1953125 C-16.0467886 212.58615704 -25.19145295 214.32405255 -35.5234375 211.84765625 C-45.36052865 208.48070234 -52.60621376 201.91288214 -57.375 192.75 C-59.61520073 188.03583846 -60.12566586 183.98901574 -60.12939453 178.76635742 C-60.1324913 177.48269287 -60.13558807 176.19902832 -60.13877869 174.87646484 C-60.13696387 173.45279925 -60.13496886 172.02913387 -60.1328125 170.60546875 C-60.13395858 169.09952771 -60.13543723 167.5935869 -60.13722229 166.08764648 C-60.14026473 161.98020802 -60.13594312 157.87281005 -60.12917709 153.76537704 C-60.12500298 151.18933903 -60.1220379 148.61330187 -60.11929321 146.03726196 C-60.10368564 133.02473518 -60.05787156 120.01240134 -60 107 C-59.99574257 106.01283997 -59.99148514 105.02567993 -59.98709869 104.00860596 C-59.93029723 91.00031416 -59.84919343 77.99244932 -59.73553467 64.98452759 C-59.7021762 61.12840266 -59.67536169 57.27231742 -59.65411377 53.41610718 C-59.62840629 48.8513734 -59.58817655 44.2869896 -59.53693962 39.72247314 C-59.5203741 38.04462835 -59.50869142 36.36672685 -59.50235176 34.68881226 C-59.45012081 22.20234609 -58.32360322 11.96282486 -50 2 C-34.42611187 -13.39173739 -17.16483524 -10.56114168 0 0 Z " fill="#FDFDFE" transform="translate(709,127)"/>
<path d="M0 0 C7.2069315 5.75113134 11.8111515 10.87076428 12.875 20.25 C13.48085938 20.19199219 14.08671875 20.13398438 14.7109375 20.07421875 C21.86164523 19.68918064 26.94552432 21.21627143 32.875 25.25 C36.69057319 28.74388552 39.57378502 32.79825014 40.2109375 37.984375 C40.32044407 46.43828214 38.95943788 51.48013148 33.625 58 C27.78822036 62.77554698 22.3658195 64.85484405 14.76586914 64.76757812 C13.99887192 64.7745874 13.23187469 64.78159668 12.44163513 64.78881836 C9.9307631 64.80628311 7.4210378 64.79481638 4.91015625 64.78125 C3.14952887 64.78394852 1.38890295 64.78783393 -0.37171936 64.79284668 C-4.05256409 64.79872636 -7.73301913 64.79022949 -11.41381836 64.77148438 C-16.112262 64.74871242 -20.80979063 64.76181625 -25.50820065 64.78577423 C-29.1415536 64.80028821 -32.77469275 64.7956004 -36.40805244 64.78526306 C-38.13946201 64.78261034 -39.8708915 64.78581388 -41.60227776 64.79518127 C-51.9453403 64.83886396 -60.687087 64.84201543 -68.9375 57.875 C-75.125 50.45 -75.125 50.45 -75.125 47.25 C-75.785 47.25 -76.445 47.25 -77.125 47.25 C-79.37384499 40.22696769 -79.40020676 30.45303573 -77.25390625 23.37890625 C-76.05164097 21.10445686 -74.76914146 19.22629125 -73.125 17.25 C-72.59390625 16.59515625 -72.0628125 15.9403125 -71.515625 15.265625 C-67.1641661 10.4351064 -62.44501725 7.53352445 -55.86328125 7.1015625 C-55.10402344 7.06804687 -54.34476563 7.03453125 -53.5625 7 C-48.77231125 6.61316345 -46.84545516 4.50618064 -43.7265625 1.03125 C-32.58435725 -11.36105633 -12.35304712 -8.64477102 0 0 Z " fill="#E1214C" transform="translate(749.125,197.75)"/>
<path d="M0 0 C4.73281723 3.30648875 8.88586 7.63032211 10.7109375 13.1953125 C11.02868394 17.22010077 10.94901408 21.16785039 10.7109375 25.1953125 C10.0509375 25.1953125 9.3909375 25.1953125 8.7109375 25.1953125 C8.68407197 27.17440648 8.66460375 29.15360221 8.6484375 31.1328125 C8.63683594 32.23496094 8.62523437 33.33710938 8.61328125 34.47265625 C8.39831179 37.10978884 8.39831179 37.10978884 9.7109375 38.1953125 C14.29164351 38.70348474 14.29164351 38.70348474 18.36328125 37.00390625 C20.07628944 34.70499961 20.42308308 32.82337327 20.8984375 30.0078125 C21.05699219 29.10675781 21.21554687 28.20570313 21.37890625 27.27734375 C21.48847656 26.59027344 21.59804688 25.90320313 21.7109375 25.1953125 C25.26447679 24.0107994 27.98107228 23.92889356 31.7109375 24.1953125 C34.32686903 26.02646457 34.68083205 27.10499616 35.7109375 30.1953125 C36.0859375 33.5703125 36.0859375 33.5703125 35.7109375 37.1953125 C33.2734375 40.0703125 33.2734375 40.0703125 30.7109375 42.1953125 C30.3809375 42.5253125 30.0509375 42.8553125 29.7109375 43.1953125 C27.38432947 43.29555185 25.08739982 43.33150458 22.76025391 43.32470703 C22.03340897 43.32645935 21.30656403 43.32821167 20.55769348 43.33001709 C18.14260506 43.33443663 15.72758924 43.33149666 13.3125 43.328125 C11.63959743 43.32879816 9.96669496 43.32976828 8.29379272 43.33102417 C4.78146436 43.3325014 1.26916136 43.33034633 -2.24316406 43.32568359 C-6.74817114 43.31999507 -11.25311853 43.32325958 -15.7581234 43.32925606 C-19.21532644 43.33286849 -22.67251532 43.33171978 -26.12971878 43.32912827 C-27.79072705 43.32846043 -29.4517366 43.32928242 -31.11274338 43.33160782 C-33.43506017 43.33414453 -35.75728026 43.33027892 -38.07958984 43.32470703 C-39.11301262 43.32774338 -39.11301262 43.32774338 -40.16731262 43.33084106 C-43.16110967 43.31752018 -45.42230075 43.15089975 -48.2890625 42.1953125 C-48.2890625 41.5353125 -48.2890625 40.8753125 -48.2890625 40.1953125 C-48.89234375 40.11410156 -49.495625 40.03289062 -50.1171875 39.94921875 C-53.71651371 38.69981235 -54.63172055 35.9248663 -56.3046875 32.671875 C-58.25826073 27.75693282 -57.95448117 23.92540105 -56.0390625 18.9453125 C-53.41446544 14.82094569 -50.81747505 12.08215106 -46.2890625 10.1953125 C-40.93076768 9.41577497 -35.88887593 9.26396245 -31.2890625 12.3828125 C-26.40770471 16.54186914 -24.93053048 21.09843143 -23.2890625 27.1953125 C-21.32083364 29.16354136 -17.94097541 28.85779631 -15.2890625 29.1953125 C-14.9590625 27.8753125 -14.6290625 26.5553125 -14.2890625 25.1953125 C-13.6290625 25.1953125 -12.9690625 25.1953125 -12.2890625 25.1953125 C-12.73577405 18.1968316 -15.18847288 12.32799932 -20.17578125 7.2890625 C-21.84030919 5.85750094 -23.5203714 4.49507109 -25.2890625 3.1953125 C-24.9590625 1.8753125 -24.6290625 0.5553125 -24.2890625 -0.8046875 C-16.1567419 -3.69617927 -7.67460309 -4.47946221 0 0 Z " fill="#FDF9FA" transform="translate(740.2890625,206.8046875)"/>
<path d="M0 0 C2.61593153 1.83115207 2.96989455 2.90968366 4 6 C4.375 9.375 4.375 9.375 4 13 C1.5625 15.875 1.5625 15.875 -1 18 C-1.495 18.495 -1.495 18.495 -2 19 C-4.32648018 19.10554544 -6.62342176 19.14678559 -8.95068359 19.14526367 C-10.040951 19.15030159 -10.040951 19.15030159 -11.15324402 19.15544128 C-13.56832566 19.16497984 -15.98333817 19.16689594 -18.3984375 19.16796875 C-20.07134022 19.17117968 -21.74424266 19.17454363 -23.41714478 19.17805481 C-26.92947033 19.18405361 -30.44177125 19.18589398 -33.95410156 19.18530273 C-38.45915306 19.18520115 -42.96404679 19.19884585 -47.4690609 19.21607494 C-50.92626676 19.22718412 -54.38343439 19.22922226 -57.84065628 19.22869301 C-59.50167 19.22987505 -61.16268466 19.23430934 -62.82368088 19.24202538 C-65.14607583 19.25180208 -67.46812708 19.24895637 -69.79052734 19.24291992 C-70.82395012 19.25134918 -70.82395012 19.25134918 -71.87825012 19.25994873 C-75.49037904 19.23604141 -76.89997235 19.0666851 -80 17 C-60.2 16.67 -40.4 16.34 -20 16 C-20 15.67 -20 15.34 -20 15 C-19.05125 14.71125 -18.1025 14.4225 -17.125 14.125 C-13.94788422 13.23174891 -13.94788422 13.23174891 -12 11 C-11.32059533 8.57284794 -11.32059533 8.57284794 -10.875 5.875 C-10.70742188 4.96492187 -10.53984375 4.05484375 -10.3671875 3.1171875 C-10.18542969 2.06917969 -10.18542969 2.06917969 -10 1 C-6.44646071 -0.1845131 -3.72986522 -0.26641894 0 0 Z " fill="#FDF7F9" transform="translate(772,231)"/>
<path d="M0 0 C0.50015625 0.15339844 1.0003125 0.30679688 1.515625 0.46484375 C4.90327766 1.19457396 8.29961519 1.36356477 11.75 1.5625 C12.79607422 1.62727539 12.79607422 1.62727539 13.86328125 1.69335938 C15.57531922 1.79889596 17.28763561 1.8998991 19 2 C18.67 2.66 18.34 3.32 18 4 C8.27304698 4.04630457 -1.45387989 4.08185963 -11.1809206 4.10362434 C-15.69739482 4.11406938 -20.21379373 4.12824169 -24.73022461 4.15087891 C-29.08739654 4.17258165 -33.44449595 4.1845632 -37.80171776 4.18975449 C-39.46552866 4.19345487 -41.12933552 4.20068063 -42.79311562 4.21146011 C-45.12038429 4.22594099 -47.44735185 4.22797939 -49.7746582 4.22705078 C-50.46517776 4.23424133 -51.15569733 4.24143188 -51.86714172 4.24884033 C-55.48588341 4.23317702 -56.89426046 4.07049303 -60 2 C-40.2 1.67 -20.4 1.34 0 1 C0 0.67 0 0.34 0 0 Z " fill="#F5B6C3" transform="translate(752,246)"/>
<path d="M0 0 C0.66 0.33 1.32 0.66 2 1 C2 3.31 2 5.62 2 8 C1.34 8 0.68 8 0 8 C-0.33 9.32 -0.66 10.64 -1 12 C-3.31 12 -5.62 12 -8 12 C-8 11.67 -8 11.34 -8 11 C-7.21625 10.896875 -6.4325 10.79375 -5.625 10.6875 C-2.66954819 10.22404978 -2.66954819 10.22404978 -1 7 C-0.34 7 0.32 7 1 7 C0.67 4.69 0.34 2.38 0 0 Z " fill="#EC6C87" transform="translate(726,224)"/>
<path d="M0 0 C2.31 0 4.62 0 7 0 C7.66 1.65 8.32 3.3 9 5 C4.545 3.02 4.545 3.02 0 1 C0 0.67 0 0.34 0 0 Z " fill="#E64065" transform="translate(734,204)"/>
</svg>
