<?xml version="1.0" encoding="UTF-8"?>
<svg version="1.1" xmlns="http://www.w3.org/2000/svg" width="1024" height="458">
<path d="M0 0 C0.89251968 -0.00524185 1.78503937 -0.0104837 2.7046051 -0.0158844 C4.58992473 -0.02230024 6.47528442 -0.02097326 8.3605957 -0.01245117 C11.24047383 -0.00394592 14.11836489 -0.03270007 16.99804688 -0.06445312 C18.83203066 -0.06606542 20.66601794 -0.06548706 22.5 -0.0625 C23.78770546 -0.07935097 23.78770546 -0.07935097 25.10142517 -0.09654236 C29.13997285 -0.04962906 31.29468294 0.11411485 34.80859375 2.26586914 C37.4284286 5.09436059 38.26181318 7.62646815 39.37890625 11.30859375 C39.58306152 11.96480713 39.7872168 12.62102051 39.99755859 13.29711914 C41.71304181 18.87143834 43.2937499 24.48966707 44.82421875 30.1171875 C45.56411109 32.59029222 46.36299393 34.93653515 47.28515625 37.33984375 C48.81459558 41.33635182 50.02700802 45.38082331 51.19140625 49.49609375 C53.12621269 56.20234825 55.23802027 62.82523239 57.48828125 69.43359375 C58.50859451 72.46041973 59.46137057 75.50379172 60.39453125 78.55859375 C60.7958728 79.86497803 60.7958728 79.86497803 61.20532227 81.19775391 C61.73035409 82.91425968 62.24925825 84.63265387 62.76147461 86.35302734 C63.38954481 88.39823264 64.09628914 90.41895527 64.81640625 92.43359375 C65.47640625 92.76359375 66.13640625 93.09359375 66.81640625 93.43359375 C66.95369141 92.03947266 66.95369141 92.03947266 67.09375 90.6171875 C67.84871756 85.37443019 69.65897201 80.48738668 71.37890625 75.49609375 C72.10693692 73.34901464 72.83479661 71.20187755 73.5625 69.0546875 C73.93616699 67.95882324 74.30983398 66.86295898 74.69482422 65.73388672 C76.46781082 60.51681383 78.20364085 55.28748097 79.94140625 50.05859375 C81.80461709 44.46306498 83.66922274 38.86804524 85.546875 33.27734375 C86.07435101 31.70447143 86.60170071 30.13155675 87.12890625 28.55859375 C87.37511719 27.82543945 87.62132812 27.09228516 87.875 26.33691406 C89.15060882 22.51540265 90.34322634 18.68452284 91.44140625 14.80859375 C93.10951631 9.13701955 94.78360875 3.78879208 99.81640625 0.43359375 C102.80320549 0.20091634 105.69432327 0.08149847 108.68359375 0.0625 C109.55533234 0.05347153 110.42707092 0.04444305 111.32522583 0.03514099 C113.16941899 0.02063513 115.01366365 0.01175092 116.85791016 0.00805664 C119.67438858 -0.0038344 122.48867191 -0.05300966 125.3046875 -0.10351562 C127.09764557 -0.11298071 128.89061708 -0.12021534 130.68359375 -0.125 C131.94319412 -0.15429848 131.94319412 -0.15429848 133.22824097 -0.18418884 C137.55402471 -0.15094155 139.28698126 0.0212332 142.80859375 2.76416016 C145.16017701 5.890645 146.01338826 8.45459684 146.94140625 12.24609375 C148.07399555 16.76141657 149.37323771 21.0472207 151.04443359 25.3815918 C152.35161052 28.85623508 153.45606547 32.39206213 154.56640625 35.93359375 C154.94502808 37.13399292 154.94502808 37.13399292 155.33129883 38.35864258 C157.80082371 46.25615758 160.10481264 54.2013431 162.36816406 62.16015625 C163.57618185 66.37055743 164.80000392 70.52467334 166.38671875 74.609375 C167.95178917 78.63952169 169.00417837 82.73240268 170.00390625 86.93359375 C170.18115234 87.660625 170.35839844 88.38765625 170.54101562 89.13671875 C170.97054657 90.90127833 171.39412152 92.66728604 171.81640625 94.43359375 C174.01633136 93.61264191 174.01633136 93.61264191 174.63842773 91.33569336 C174.90212158 90.42827393 175.16581543 89.52085449 175.4375 88.5859375 C175.88125977 87.08836914 175.88125977 87.08836914 176.33398438 85.56054688 C176.63755859 84.50802734 176.94113281 83.45550781 177.25390625 82.37109375 C179.03431684 76.27940934 180.8085843 70.24237502 183.10375977 64.32299805 C184.40025628 60.88566111 185.47274523 57.37714253 186.56640625 53.87109375 C186.94502808 52.66791504 186.94502808 52.66791504 187.33129883 51.44042969 C188.80273022 46.74511588 190.24052242 42.04052846 191.65625 37.328125 C192.11789551 35.79490601 192.11789551 35.79490601 192.58886719 34.23071289 C193.18583749 32.24277628 193.77911196 30.25372498 194.36816406 28.26342773 C195.9038434 23.14494563 197.65286699 18.31683631 199.81640625 13.43359375 C200.55203605 11.14852146 201.2226447 8.85678717 201.875 6.546875 C203.15076292 3.68302545 204.30822441 2.3631167 206.81640625 0.43359375 C209.78498146 0.02366284 212.37568675 -0.15133269 215.34375 -0.1328125 C216.16968155 -0.13901108 216.9956131 -0.14520966 217.84657288 -0.15159607 C219.59065575 -0.15868914 221.33480641 -0.15552908 223.07885742 -0.14282227 C225.74199626 -0.12896821 228.40161171 -0.16301523 231.06445312 -0.20117188 C232.76171961 -0.20212325 234.45899047 -0.20026325 236.15625 -0.1953125 C236.94909897 -0.20857071 237.74194794 -0.22182892 238.55882263 -0.23548889 C242.76808811 -0.1649134 244.38254849 0.09872176 247.83081055 2.76025391 C250.43955242 6.27257697 250.32992065 8.1340777 249.81640625 12.43359375 C249.07421875 15.5625 249.07421875 15.5625 247.94140625 18.99609375 C247.72871094 19.65101807 247.51601563 20.30594238 247.296875 20.98071289 C246.48329078 23.46956596 245.65065716 25.95158922 244.81640625 28.43359375 C243.37057308 32.75123631 241.92533055 37.0690763 240.48068237 41.38711548 C240.03763525 42.71035416 239.59405153 44.0334133 239.14993286 45.35629272 C236.18776244 54.18202614 233.35521713 63.02081864 230.8515625 71.98828125 C230.09448395 74.50806721 229.28423082 76.8991734 228.34375 79.34765625 C226.75969856 83.48104827 225.51849851 87.67586051 224.31640625 91.93359375 C222.96731176 96.71199938 221.49175467 101.3519046 219.70898438 105.99121094 C217.81130501 111.18387625 216.17062951 116.46860043 214.48242188 121.73242188 C213.81993349 123.79759829 213.15434909 125.86175686 212.48828125 127.92578125 C210.4061652 134.39103348 208.35118899 140.86100407 206.44335938 147.38037109 C201.98242596 161.98958061 201.98242596 161.98958061 196.81640625 165.43359375 C194.69825745 165.70101929 194.69825745 165.70101929 192.22485352 165.72412109 C191.29701553 165.7368808 190.36917755 165.7496405 189.41322327 165.76278687 C188.41318771 165.76501251 187.41315216 165.76723816 186.3828125 165.76953125 C184.83858864 165.77951645 184.83858864 165.77951645 183.26316833 165.78970337 C181.0852131 165.79983162 178.90722681 165.80452034 176.72924805 165.80419922 C173.39515132 165.80857244 170.06237806 165.84489132 166.72851562 165.8828125 C164.61328578 165.88868054 162.49804965 165.89265002 160.3828125 165.89453125 C159.38480118 165.90890228 158.38678986 165.92327332 157.35853577 165.93807983 C150.50812813 165.89280295 150.50812813 165.89280295 147.2902832 163.7565918 C145.63221792 161.14329195 144.61567118 158.75370882 143.66796875 155.8046875 C143.12414551 154.14240112 143.12414551 154.14240112 142.56933594 152.4465332 C142.01101074 150.67669067 142.01101074 150.67669067 141.44140625 148.87109375 C141.04856445 147.65832764 140.65572266 146.44556152 140.25097656 145.19604492 C139.09363643 141.61241372 137.952934 138.02387158 136.81640625 134.43359375 C136.23605355 132.61836918 135.65536681 130.80325134 135.07421875 128.98828125 C133.63561037 124.47601415 132.22334306 119.95581615 130.81640625 115.43359375 C130.38311122 114.04808363 129.94952194 112.66266549 129.515625 111.27734375 C128.69006521 108.64144023 127.86751513 106.0046263 127.046875 103.3671875 C126.18616808 100.60554986 125.31158768 97.84869079 124.4296875 95.09375 C124.201604 94.37662842 123.97352051 93.65950684 123.73852539 92.9206543 C123.30481958 91.55778144 122.86803163 90.19588375 122.42749023 88.83520508 C121.22923595 85.05571748 120.37199419 81.35894334 119.81640625 77.43359375 C118.82640625 77.43359375 117.83640625 77.43359375 116.81640625 77.43359375 C116.73003906 77.96984375 116.64367187 78.50609375 116.5546875 79.05859375 C115.20629355 86.57991048 112.93941288 93.76091505 110.59326172 101.01757812 C109.73083404 103.6997228 108.88406129 106.3865336 108.0390625 109.07421875 C107.4233061 111.02738443 106.80742162 112.98050973 106.19140625 114.93359375 C105.90241455 115.85301758 105.61342285 116.77244141 105.31567383 117.71972656 C104.06097946 121.67570409 102.78199683 125.59964659 101.2890625 129.47265625 C99.55211051 134.00752167 98.22988079 138.647155 96.87890625 143.30859375 C91.14846614 162.61653125 91.14846614 162.61653125 88.04455566 164.52041626 C85.56607027 165.53619063 83.7825157 165.69910391 81.11132812 165.72412109 C80.18356567 165.7368808 79.25580322 165.7496405 78.29992676 165.76278687 C76.80761536 165.76612534 76.80761536 165.76612534 75.28515625 165.76953125 C73.74305481 165.77951645 73.74305481 165.77951645 72.1697998 165.78970337 C69.99782092 165.79982103 67.82581101 165.80452066 65.65380859 165.80419922 C62.3285829 165.80857772 59.00467887 165.84492226 55.6796875 165.8828125 C53.56901496 165.88867971 51.45833611 165.89264974 49.34765625 165.89453125 C48.35278198 165.90890228 47.35790771 165.92327332 46.33288574 165.93807983 C39.4550249 165.89246335 39.4550249 165.89246335 36.23071289 163.57568359 C34.53515646 161.00761659 33.63617407 158.63212515 32.75390625 155.68359375 C31.53108549 151.67400121 30.18217332 147.76367642 28.69360352 143.84521484 C26.74587784 138.49045999 25.05604379 133.04620194 23.31640625 127.62109375 C22.88212672 126.27203902 22.44779951 124.92299964 22.01342773 123.57397461 C19.58640139 116.02331776 17.19111051 108.46302559 14.8203125 100.89453125 C14.57368866 100.10752335 14.32706482 99.32051544 14.07296753 98.50965881 C12.87291072 94.67779571 11.67617382 90.84493759 10.484375 87.01049805 C7.99252712 78.92735152 7.99252712 78.92735152 5.15625 70.9609375 C3.38961762 66.31000737 2.06172681 61.5734711 0.7109375 56.7890625 C-0.46072471 52.70690181 -1.78717874 48.74687002 -3.30908203 44.77783203 C-5.30048443 39.43962828 -7.07819128 34.02839609 -8.87109375 28.62109375 C-9.28681641 27.41388672 -9.70253906 26.20667969 -10.13085938 24.96289062 C-14.91187921 10.44711776 -14.91187921 10.44711776 -13.18359375 3.43359375 C-9.7878425 -0.69428465 -4.91479366 -0.01676717 0 0 Z " fill="#FDFDFF" transform="translate(63.18359375,53.56640625)"/>
<path d="M0 0 C1.80397987 1.58715537 3.37203764 3.22404106 5 5 C5.99 5.66 6.98 6.32 8 7 C8.4846875 6.55269531 8.969375 6.10539062 9.46875 5.64453125 C22.89708879 -6.46679739 35.98606283 -9.76574614 53.90380859 -9.13183594 C63.1300883 -8.55156677 70.50950942 -5.23528911 78 0 C79.0725 0.7425 80.145 1.485 81.25 2.25 C85.0423418 6.0423418 87.44530137 10.3151224 90 15 C90.5775 16.010625 91.155 17.02125 91.75 18.0625 C94.55067904 24.64409575 95.29856976 31.33195516 95.25878906 38.42553711 C95.26404602 39.60774841 95.26404602 39.60774841 95.26940918 40.81384277 C95.27812006 43.38510275 95.27241948 45.95608163 95.265625 48.52734375 C95.26697377 50.3257299 95.26891607 52.1241157 95.27142334 53.92250061 C95.27435933 57.67371119 95.27012271 61.424826 95.26074219 65.17602539 C95.2492907 69.99035381 95.25595253 74.8044606 95.26788712 79.61878109 C95.2750979 83.32385443 95.2728224 87.02887476 95.26763153 90.73394966 C95.26629584 92.51021921 95.26793993 94.28649353 95.27259064 96.06275749 C95.2776493 98.53537757 95.2699578 101.00763192 95.25878906 103.48022461 C95.26283752 104.21630447 95.26688599 104.95238434 95.27105713 105.71076965 C95.22854118 110.77145882 95.22854118 110.77145882 93 113 C90.15459858 113.19990227 87.40862216 113.27976976 84.5625 113.265625 C83.72662354 113.26753845 82.89074707 113.2694519 82.02954102 113.27142334 C80.26090189 113.27278536 78.49225277 113.26908776 76.72363281 113.26074219 C74.01084006 113.25004275 71.29870956 113.26063676 68.5859375 113.2734375 C66.8697902 113.27211591 65.15364331 113.26955352 63.4375 113.265625 C62.2155896 113.27169769 62.2155896 113.27169769 60.96899414 113.27789307 C55.22991928 113.22991928 55.22991928 113.22991928 53 111 C52.7484436 108.32789612 52.7484436 108.32789612 52.74462891 104.88891602 C52.73766998 103.60320206 52.73071106 102.3174881 52.72354126 100.99281311 C52.72456282 99.95777492 52.72456282 99.95777492 52.72560501 98.90182686 C52.72657087 96.73513864 52.71361674 94.56894586 52.69662476 92.40232849 C52.65040421 86.24099719 52.62579925 80.07971148 52.61914062 73.91821289 C52.61408466 70.14851003 52.58961829 66.37931502 52.55381393 62.60978508 C52.54409733 61.18149829 52.54163893 59.75314084 52.54698563 58.32483101 C52.58137309 48.67489085 52.40502462 38.73540147 45.5 31.3125 C39.24150836 28.96556563 32.9710271 29.18971988 26.5625 30.9375 C21.91359324 34.679303 19.15993175 40.17297971 18 46 C17.89505426 48.1279196 17.84419487 50.25872843 17.82641602 52.38916016 C17.81292618 53.68375153 17.79943634 54.9783429 17.78553772 56.31216431 C17.78047777 57.00099323 17.77541782 57.68982216 17.77020454 58.39952469 C17.75374982 60.55959726 17.73051395 62.71949897 17.70530701 64.87948608 C17.63462887 71.01885443 17.57425869 77.15828913 17.52319336 83.29785156 C17.49145521 87.0567464 17.45020394 90.81543828 17.40299797 94.57416916 C17.38695921 96.00709781 17.37464631 97.44007308 17.36609077 98.87306595 C17.35397686 100.87199427 17.32879885 102.87083065 17.30297852 104.86962891 C17.29267105 106.00784088 17.28236359 107.14605286 17.27174377 108.3187561 C17 111 17 111 15 113 C12.16634392 113.21219883 9.43291979 113.30396569 6.59765625 113.30078125 C5.76415146 113.30506638 4.93064667 113.3093515 4.07188416 113.31376648 C2.3074535 113.31951435 0.54299915 113.32000668 -1.22143555 113.31567383 C-3.92342533 113.31251645 -6.62431778 113.33595745 -9.32617188 113.36132812 C-11.03906112 113.36360131 -12.75195331 113.36430453 -14.46484375 113.36328125 C-15.2742894 113.372491 -16.08373505 113.38170074 -16.91770935 113.39118958 C-22.47119193 113.34531877 -22.47119193 113.34531877 -24.71327209 111.88121033 C-26.61506252 109.10077184 -26.37893941 106.87536615 -26.38476562 103.52832031 C-26.3901384 102.87588348 -26.39551117 102.22344666 -26.40104675 101.55123901 C-26.41082442 100.13533742 -26.41376891 98.71937591 -26.41069031 97.30344391 C-26.40620957 95.05786138 -26.42022078 92.81306595 -26.43908691 90.56756592 C-26.47588373 85.7950569 -26.48956999 81.02262995 -26.5 76.25 C-26.51209845 70.73171603 -26.53379425 65.21381441 -26.58000183 59.6957016 C-26.59351425 57.49157963 -26.58941066 55.287948 -26.58459473 53.08380127 C-26.59394359 51.71894726 -26.60411447 50.35409855 -26.61523438 48.98925781 C-26.61728882 47.80583801 -26.61934326 46.62241821 -26.62145996 45.40313721 C-27.27755402 39.50474367 -29.36960611 34.88355617 -34 31 C-39.03154867 28.48422567 -46.3240389 29.46129822 -51.5 31.125 C-57.09779944 35.32334958 -59.49114219 41.35920731 -61 48 C-61.43161271 52.86133905 -61.44104463 57.71313037 -61.44140625 62.58984375 C-61.45319811 63.98467888 -61.46656672 65.37950147 -61.48143005 66.77430725 C-61.51736759 70.41813226 -61.53775192 74.06184596 -61.55297852 77.70581055 C-61.57796294 83.56177411 -61.61737716 89.41749244 -61.67487907 95.27322578 C-61.691209 97.31517946 -61.69498367 99.35689961 -61.69789124 101.39891052 C-61.70807785 102.63101761 -61.71826447 103.86312469 -61.72875977 105.13256836 C-61.73303482 106.22016953 -61.73730988 107.30777069 -61.74171448 108.42832947 C-62 111 -62 111 -64 113 C-66.84540142 113.19990227 -69.59137784 113.27976976 -72.4375 113.265625 C-73.27337646 113.26753845 -74.10925293 113.2694519 -74.97045898 113.27142334 C-76.73909811 113.27278536 -78.50774723 113.26908776 -80.27636719 113.26074219 C-82.98915994 113.25004275 -85.70129044 113.26063676 -88.4140625 113.2734375 C-90.1302098 113.27211591 -91.84635669 113.26955352 -93.5625 113.265625 C-94.7844104 113.27169769 -94.7844104 113.27169769 -96.03100586 113.27789307 C-101.77008072 113.22991928 -101.77008072 113.22991928 -104 111 C-104.24609566 108.92667198 -104.24609566 108.92667198 -104.24050903 106.31771851 C-104.24325836 105.33051315 -104.24600769 104.3433078 -104.24884033 103.32618713 C-104.24164978 102.23934128 -104.23445923 101.15249542 -104.22705078 100.03271484 C-104.22748886 98.32052513 -104.22748886 98.32052513 -104.22793579 96.57374573 C-104.22653809 92.78606669 -104.21095609 88.99858233 -104.1953125 85.2109375 C-104.19158394 82.59062813 -104.18873623 79.97031737 -104.18673706 77.3500061 C-104.18051501 71.14870306 -104.16409445 64.94747034 -104.14403808 58.7461983 C-104.12170157 51.68704583 -104.11069132 44.62789004 -104.10064721 37.56871104 C-104.07972881 23.04577105 -104.0445388 8.52288651 -104 -6 C-100.79300212 -7.60349894 -97.30398791 -7.1630236 -93.78125 -7.16796875 C-92.56072937 -7.17296135 -92.56072937 -7.17296135 -91.31555176 -7.17805481 C-89.5939999 -7.18312075 -87.87243821 -7.18546324 -86.15087891 -7.18530273 C-83.51057877 -7.18749123 -80.87069503 -7.20565567 -78.23046875 -7.22460938 C-76.55989727 -7.22754291 -74.88932379 -7.22952797 -73.21875 -7.23046875 C-72.42601685 -7.23765427 -71.63328369 -7.24483978 -70.81652832 -7.25224304 C-65.22882682 -7.22882682 -65.22882682 -7.22882682 -63 -5 C-62.59952556 -2.67724823 -62.2602896 -0.34260643 -62 2 C-61.3709375 1.52949219 -60.741875 1.05898438 -60.09375 0.57421875 C-42.36879747 -12.31908256 -18.0010462 -13.16988307 0 0 Z " fill="#FDFDFF" transform="translate(576,316)"/>
<path d="M0 0 C1.18916016 -0.01160156 2.37832031 -0.02320313 3.60351562 -0.03515625 C10.22218339 -0.01310627 15.72747003 0.09237694 21.5625 3.375 C26.91857898 9.95540161 26.12150592 17.27934895 26.06420898 25.41064453 C26.06799557 26.94049577 26.0734984 28.47034358 26.08058167 30.00018311 C26.09450711 34.14061484 26.08338824 38.2806297 26.06687045 42.42103815 C26.05299101 46.75887512 26.05948313 51.09668861 26.06300354 55.43453979 C26.0657028 62.71603086 26.05225257 69.99735681 26.02905273 77.27880859 C26.00242477 85.69440941 26.00070328 94.10973456 26.0124411 102.52536309 C26.02322219 110.62787469 26.01703051 118.73028668 26.00288582 126.83279037 C25.99713089 130.27846509 25.99720476 133.7240668 26.00195122 137.16974258 C26.00672568 141.22624478 25.99660008 145.28244526 25.97499657 149.33889008 C25.96943563 150.82678841 25.96895706 152.31471577 25.97394943 153.80261612 C25.97991203 155.83457345 25.96555033 157.86656007 25.95018005 159.89846802 C25.94653521 161.60351344 25.94653521 161.60351344 25.94281673 163.34300423 C25.37439056 167.87466324 23.47607638 170.443242 20.32983398 173.65209961 C16.79243415 175.85443138 14.4364113 175.90602847 10.28515625 175.94140625 C9.59618759 175.94760483 8.90721893 175.95380341 8.19737244 175.96018982 C6.74593512 175.96726629 5.29441627 175.96415183 3.84301758 175.95141602 C1.63404398 175.93755674 -0.57068116 175.9716309 -2.77929688 176.00976562 C-4.19531353 176.01071708 -5.61133543 176.00885657 -7.02734375 176.00390625 C-8.30472412 176.00463135 -9.58210449 176.00535645 -10.89819336 176.00610352 C-16.25964484 175.05008833 -18.63637942 172.17612058 -22.4375 168.375 C-23.00855469 168.77332031 -23.57960938 169.17164063 -24.16796875 169.58203125 C-38.2271697 178.76856796 -56.02379888 179.45617753 -72.25 176.375 C-88.42076107 171.92700145 -102.41187728 161.55943712 -110.8046875 147.00390625 C-120.55020944 128.52201405 -121.5554587 104.25222325 -115.4375 84.375 C-112.68271218 77.09953474 -108.36450889 71.32416225 -103.4375 65.375 C-102.674375 64.34375 -101.91125 63.3125 -101.125 62.25 C-94.55332734 55.21983855 -86.30970856 50.8673889 -77.4375 47.375 C-76.66019531 47.065625 -75.88289062 46.75625 -75.08203125 46.4375 C-58.78932055 40.76097768 -42.77282879 43.48730147 -27.4375 50.375 C-25.9525 50.87 -25.9525 50.87 -24.4375 51.375 C-24.4689209 49.62026367 -24.4689209 49.62026367 -24.50097656 47.83007812 C-24.57374856 43.4617146 -24.61943422 39.09340395 -24.65722656 34.72460938 C-24.67725767 32.83910084 -24.70449073 30.95365377 -24.73925781 29.06835938 C-24.78815272 26.34750138 -24.81055382 23.62746944 -24.828125 20.90625 C-24.84877014 20.07258911 -24.86941528 19.23892822 -24.89068604 18.38000488 C-24.89284977 12.64900409 -23.80599136 8.10351487 -20.4375 3.375 C-14.29118907 -0.79954138 -7.20421657 -0.07005721 0 0 Z M-61.96875 89.375 C-69.23202313 96.95406762 -69.89172417 103.99399268 -69.6796875 114.1953125 C-69.09177425 121.91404447 -66.53906803 126.88231454 -61.44921875 132.6484375 C-56.7472474 136.68391582 -52.56071673 137.79028432 -46.4375 137.75 C-45.261875 137.75773437 -44.08625 137.76546875 -42.875 137.7734375 C-36.03043254 136.98008991 -32.21085289 133.66442579 -27.98046875 128.546875 C-23.57007936 122.33883323 -21.92115067 114.70748033 -22.65234375 107.15625 C-23.96980213 100.02942753 -26.69615727 92.92053253 -32.0625 87.9375 C-42.65631749 83.03295487 -52.13702924 81.60672681 -61.96875 89.375 Z " fill="#FDFDFF" transform="translate(731.4375,43.625)"/>
<path d="M0 0 C0.90569733 -0.00426498 1.81139465 -0.00852997 2.74453735 -0.01292419 C3.74094238 -0.01247101 4.73734741 -0.01201782 5.76394653 -0.0115509 C7.33482529 -0.01658882 7.33482529 -0.01658882 8.93743896 -0.02172852 C12.41363701 -0.03125948 15.889787 -0.03318274 19.36599731 -0.03425598 C21.77494324 -0.03746718 24.18388897 -0.04083114 26.59283447 -0.04434204 C31.64857434 -0.05033876 36.70429711 -0.05218139 41.76004028 -0.05158997 C48.24575678 -0.05148834 54.73136382 -0.0651389 61.21705437 -0.08236217 C66.19438178 -0.09346851 71.17168261 -0.09550959 76.14902115 -0.09498024 C78.54047142 -0.09616249 80.93192233 -0.10059788 83.32336044 -0.10831261 C86.66561342 -0.1180844 90.00762739 -0.11524543 93.34988403 -0.10920715 C94.3422406 -0.11482666 95.33459717 -0.12044617 96.35702515 -0.12623596 C97.26836212 -0.12204147 98.1796991 -0.11784698 99.11865234 -0.11352539 C99.90879667 -0.11407016 100.698941 -0.11461493 101.5130291 -0.1151762 C103.98388185 0.16779138 105.57737656 0.82998884 107.68630981 2.13371277 C110.59494308 6.77279873 109.9799296 12.3484492 109.93630981 17.63371277 C109.94791138 19.03943542 109.94791138 19.03943542 109.95974731 20.47355652 C109.93400198 29.54878602 109.93400198 29.54878602 107.68630981 33.13371277 C104.28243929 35.37234167 101.32525034 35.40031161 97.3130188 35.43669128 C95.37597328 35.46165428 95.37597328 35.46165428 93.39979553 35.48712158 C91.99399859 35.4956828 90.58820125 35.50418042 89.18240356 35.51261902 C87.73797996 35.52879979 86.29356724 35.5459804 84.84916687 35.56411743 C81.05115797 35.6097564 77.25313439 35.64458592 73.45498657 35.67631531 C67.37221098 35.72823406 61.28959566 35.79337465 55.2070179 35.86453056 C53.0826522 35.88734783 50.9583068 35.90362807 48.83387756 35.91925049 C47.54566605 35.93274033 46.25745453 35.94623016 44.9302063 35.96012878 C43.79421494 35.96964066 42.65822357 35.97915253 41.48780823 35.98895264 C38.6035125 36.01306131 38.6035125 36.01306131 35.68630981 37.13371277 C35.35630981 44.06371277 35.02630981 50.99371277 34.68630981 58.13371277 C36.41711792 58.11800232 38.14792603 58.10229187 39.93118286 58.08610535 C45.65875895 58.03767094 51.38630555 58.00323174 57.11403179 57.97827625 C60.58575091 57.96264034 64.05724785 57.94144064 67.52883911 57.90739441 C71.52275693 57.86847214 75.51644244 57.85398648 79.51052856 57.84074402 C80.75340134 57.82526016 81.99627411 57.80977631 83.27680969 57.79382324 C84.43763565 57.79359665 85.59846161 57.79337006 86.79446411 57.7931366 C88.32335518 57.78314384 88.32335518 57.78314384 89.88313293 57.77294922 C94.00780814 58.3037871 96.64295826 60.03499854 99.47610474 63.01847839 C100.91572779 65.53469671 101.05991264 67.09188485 101.04959106 69.97746277 C101.04862427 71.35224792 101.04862427 71.35224792 101.04763794 72.75480652 C101.03152466 73.70484558 101.01541138 74.65488464 100.99880981 75.63371277 C101.00203247 76.58375183 101.00525513 77.53379089 101.00857544 78.51261902 C100.94543179 86.67537018 100.94543179 86.67537018 98.68630981 90.13371277 C95.41611421 93.19703069 93.14491221 93.50214934 88.72439575 93.47428894 C87.52345276 93.47406235 86.32250977 93.47383575 85.08517456 93.47360229 C83.79339294 93.45811844 82.50161133 93.44263458 81.17068481 93.42668152 C79.83119177 93.42108328 78.49169256 93.41681426 77.15219116 93.41381836 C73.63393061 93.4023873 70.11604411 93.37293571 66.59793091 93.33970642 C63.00504618 93.30896766 59.41210076 93.29530493 55.81912231 93.28019714 C48.77469885 93.2480639 41.73052881 93.19688898 34.68630981 93.13371277 C34.738089 96.73906177 34.83313998 100.34199703 34.93630981 103.94621277 C34.9504895 104.97037292 34.96466919 105.99453308 34.97927856 107.04972839 C35.01150513 108.03263855 35.04373169 109.01554871 35.07693481 110.02824402 C35.09788208 110.93421326 35.11882935 111.8401825 35.14041138 112.77360535 C35.50665699 115.22762135 35.50665699 115.22762135 37.31083679 116.93173218 C40.4533292 118.52182175 42.78358794 118.49166161 46.30325317 118.47087097 C46.95904861 118.47142487 47.61484406 118.47197876 48.29051208 118.47254944 C49.7102656 118.47229011 51.13002999 118.46543448 52.54972649 118.45270729 C54.79904429 118.43430676 57.04743236 118.43700422 59.29679871 118.44577026 C65.69004711 118.46756743 72.08293767 118.45664396 78.47610474 118.41862488 C82.39081972 118.39681993 86.30461913 118.40407051 90.21930122 118.42908287 C91.70841593 118.43267314 93.19760255 118.42503078 94.68659782 118.40583229 C106.20730792 118.26016345 106.20730792 118.26016345 109.71600342 120.33251953 C112.4367756 123.31633786 113.3126643 126.40863306 113.28005981 130.35636902 C113.27748169 131.30705261 113.27490356 132.25773621 113.27224731 133.23722839 C113.24388794 134.21369324 113.21552856 135.19015808 113.18630981 136.19621277 C113.190177 137.66671082 113.190177 137.66671082 113.19412231 139.16691589 C113.06995647 148.31173006 113.06995647 148.31173006 109.68630981 152.13371277 C106.73320139 153.92592389 104.53396931 154.38552877 101.10087585 154.39440918 C100.18546021 154.40149399 99.27004456 154.4085788 98.32688904 154.4158783 C96.83139778 154.41216217 96.83139778 154.41216217 95.30569458 154.40837097 C93.72215683 154.41603737 93.72215683 154.41603737 92.10662842 154.42385864 C88.61360012 154.4377696 85.12076879 154.43679675 81.62771606 154.43449402 C79.20160346 154.43838003 76.77549153 154.4427145 74.34938049 154.44747925 C69.26269323 154.45494464 64.17607537 154.45464777 59.08938599 154.4493866 C52.56788829 154.4435907 46.04667448 154.46052459 39.52522373 154.48373127 C34.51439246 154.49845596 29.50362976 154.49934203 24.49278069 154.49622154 C22.08819962 154.49673536 19.68361477 154.50198438 17.27905464 154.51203346 C13.91795472 154.52435612 10.55741046 154.51763088 7.19631958 154.50602722 C6.20134964 154.51367096 5.2063797 154.5213147 4.18125916 154.52919006 C-4.51928477 154.46272744 -4.51928477 154.46272744 -8.31369019 151.13371277 C-10.40216953 147.83871182 -10.56854613 145.19467225 -10.58111572 141.33343506 C-10.58964569 140.14876648 -10.59817566 138.9640979 -10.60696411 137.74353027 C-10.60605774 136.44731247 -10.60515137 135.15109467 -10.60421753 133.81559753 C-10.61020317 132.43397153 -10.6170088 131.05234886 -10.62457275 129.67073059 C-10.64223484 125.92073343 -10.64692817 122.17082755 -10.64820433 118.42079282 C-10.64962618 116.07759671 -10.65389639 113.73442379 -10.65919876 111.39123344 C-10.67769857 103.21577862 -10.68586929 95.040389 -10.68429565 86.86491394 C-10.68309373 79.24516032 -10.70420602 71.62568972 -10.73578298 64.00600773 C-10.76193402 57.46236513 -10.77266347 50.91881504 -10.77138484 44.37512058 C-10.77087492 40.46755486 -10.77657421 36.56024077 -10.79774094 32.65272713 C-10.81710425 28.97788687 -10.81726137 25.30353879 -10.80270767 21.62868118 C-10.79961955 19.6389045 -10.81630869 17.64912788 -10.83358765 15.65942383 C-10.82519867 14.47193542 -10.81680969 13.28444702 -10.8081665 12.06097412 C-10.80925604 11.03099587 -10.81034557 10.00101763 -10.81146812 8.93982792 C-10.18225769 5.39279057 -8.7770814 3.71232867 -6.31369019 1.13371277 C-3.97525044 -0.0355071 -2.60544831 0.00553126 0 0 Z " fill="#FDFDFF" transform="translate(60.313690185546875,274.8662872314453)"/>
<path d="M0 0 C19.26968664 -0.51992409 39.63289663 3.79910919 54.0703125 17.359375 C57.84319614 21.38198439 60.33099689 24.68336257 61.69140625 30.125 C62.35140625 30.455 63.01140625 30.785 63.69140625 31.125 C64.7265625 33.78515625 64.7265625 33.78515625 65.75390625 37.1875 C66.09550781 38.29222656 66.43710937 39.39695313 66.7890625 40.53515625 C68.37957565 46.86278218 68.81688964 53.04116131 68.8684082 59.54736328 C68.8749794 60.24115082 68.8815506 60.93493835 68.88832092 61.64974976 C68.90781869 63.91493882 68.91965644 66.18006274 68.9296875 68.4453125 C68.93376303 69.2248315 68.93783855 70.00435051 68.94203758 70.8074913 C68.96278705 74.92520624 68.97714242 79.04288886 68.98657227 83.16064453 C68.99767938 87.40193259 69.0321598 91.64270223 69.07174397 95.88380623 C69.09790469 99.15926067 69.10626304 102.4345905 69.10985374 105.71014023 C69.11471252 107.27380799 69.12630636 108.83747045 69.14489174 110.40103531 C69.16929797 112.5882534 69.16831771 114.77411261 69.16137695 116.96142578 C69.16724319 118.20304474 69.17310944 119.4446637 69.17915344 120.72390747 C68.59409376 124.80356626 67.26086349 126.93744509 64.69140625 130.125 C59.83917569 133.35982037 54.17252396 132.45802217 48.49511719 132.44067383 C46.33086456 132.43752106 44.16798919 132.46095238 42.00390625 132.48632812 C40.62109547 132.48860206 39.23828102 132.48930418 37.85546875 132.48828125 C36.6020166 132.49126221 35.34856445 132.49424316 34.05712891 132.49731445 C29.06173399 131.94472652 26.61270344 130.19569674 23.37890625 126.4375 C22.82203125 125.674375 22.26515625 124.91125 21.69140625 124.125 C21.21832031 124.52332031 20.74523437 124.92164063 20.2578125 125.33203125 C7.37676718 135.65193306 -9.27989929 135.38060485 -25.05078125 133.734375 C-36.75173513 131.50289724 -47.54285884 125.02085939 -54.30859375 115.125 C-60.46806406 105.67138259 -61.03596376 95.02996195 -59.30859375 84.125 C-59.19128906 83.35414063 -59.07398438 82.58328125 -58.953125 81.7890625 C-56.8758311 73.13627436 -49.5567477 66.0807415 -42.4453125 61.1328125 C-28.97113344 53.80315082 -13.80610173 53.6404094 1.12890625 53.4375 C2.84312328 53.40422526 4.55731702 53.3697268 6.27148438 53.33398438 C10.41132642 53.25026734 14.55112635 53.18292615 18.69140625 53.125 C16.01252785 46.56823859 14.05120888 44.04245265 7.69140625 41.125 C-2.81885118 38.15470986 -13.33556164 40.69000626 -23.30859375 44.25 C-29.34148966 46.30195313 -34.75994921 47.61242244 -40.796875 45.08203125 C-44.26616314 42.37890005 -45.69797144 39.29661932 -47.55859375 35.375 C-47.90921875 34.6840625 -48.25984375 33.993125 -48.62109375 33.28125 C-51.10297803 28.20293294 -52.85040264 23.2984521 -51.87109375 17.5625 C-46.21367868 8.7369325 -35.83942463 6.647867 -26.30859375 4.125 C-25.14070313 3.81433594 -23.9728125 3.50367187 -22.76953125 3.18359375 C-15.17568097 1.30778586 -7.79205827 0.42190502 0 0 Z M-11.24609375 85.8125 C-12.7765775 89.14355286 -12.75378346 91.4998838 -12.30859375 95.125 C-10.1718009 98.51439556 -9.13111705 99.85082557 -5.30859375 101.125 C4.73548113 102.2667006 11.00609532 100.14783042 19.69140625 95.125 C19.69140625 90.835 19.69140625 86.545 19.69140625 82.125 C16.17036377 82.07078378 12.650166 82.0312208 9.12890625 82 C7.64293945 81.97486328 7.64293945 81.97486328 6.12695312 81.94921875 C-3.1828783 81.74473758 -3.1828783 81.74473758 -11.24609375 85.8125 Z " fill="#FDFDFF" transform="translate(372.30859375,86.875)"/>
<path d="M0 0 C18.10142091 16.0968842 29.73630272 35.16438117 31.875 59.71484375 C33.3159661 86.05750533 26.27123668 107.52245042 9.1875 127.625 C1.70768378 135.77957891 -7.10893776 142.08751252 -17 147 C-17.62938477 147.32452148 -18.25876953 147.64904297 -18.90722656 147.98339844 C-36.91274626 156.8955699 -62.59743891 157.67234139 -81.83056641 151.98925781 C-85.71556604 150.60147792 -89.36370912 148.94432321 -93 147 C-93.72541992 146.61457031 -94.45083984 146.22914063 -95.19824219 145.83203125 C-114.6007547 135.18777672 -131.14381406 118.23658607 -137.71142578 96.66308594 C-138.7088529 92.91680174 -139.54928116 89.15263982 -140.30859375 85.3515625 C-140.82022469 82.14514949 -140.82022469 82.14514949 -142 80 C-144.21185397 56.82313019 -139.27219162 33.65970334 -124.6875 15.1875 C-123.14948014 13.43652355 -121.58621519 11.70743814 -120 10 C-119.15566406 9.06414062 -118.31132812 8.12828125 -117.44140625 7.1640625 C-86.86100651 -25.23607075 -34.43470255 -27.9867702 0 0 Z M-70.25 9.25 C-70.9939502 9.45447754 -71.73790039 9.65895508 -72.50439453 9.86962891 C-86.93875359 14.11050322 -99.84969679 23.56061675 -107.203125 36.84765625 C-115.39629023 52.47098684 -118.40348418 69.91804236 -113.09765625 87.2421875 C-106.65783459 103.42195294 -95.58571454 116.56149542 -79.625 123.93359375 C-65.40646382 129.70987407 -47.89938884 130.37741027 -33.27734375 125.45703125 C-15.8297804 117.70024802 -4.44178361 105.18814728 2.73828125 87.60546875 C8.47227482 71.22009394 6.1285091 55.39490228 -1 40 C-2.73970716 36.73204179 -4.67896833 33.8795977 -7 31 C-7.63421875 30.18144531 -8.2684375 29.36289062 -8.921875 28.51953125 C-18.67967225 16.74963348 -30.67713941 11.7966172 -45 8 C-45.70769531 7.80019531 -46.41539062 7.60039062 -47.14453125 7.39453125 C-55.05759092 5.71196488 -62.59656725 7.13342889 -70.25 9.25 Z " fill="#E01C48" transform="translate(418,279)"/>
<path d="M0 0 C10.78177118 8.55635222 15.79463121 19.59926342 17.77764893 32.98864746 C18.51088213 39.57820987 18.46114958 46.16169313 18.42578125 52.78125 C18.42458556 54.28005941 18.42413711 55.77886958 18.4243927 57.27767944 C18.42284318 60.38878195 18.4146651 63.49976687 18.40112305 66.61083984 C18.38398646 70.59760942 18.38031378 74.58425234 18.38106823 78.57105446 C18.38079672 81.65250862 18.37532096 84.73393512 18.36806679 87.8153801 C18.36488946 89.28659227 18.3629149 90.75780756 18.36217308 92.22902298 C18.36000799 94.27460106 18.35046861 96.32016735 18.34057617 98.36572266 C18.33676437 99.52786285 18.33295258 100.69000305 18.32902527 101.88735962 C18.1953125 104.7421875 18.1953125 104.7421875 17.1953125 107.7421875 C11.38004031 112.24055717 4.71330496 111.21741864 -2.3046875 111.1796875 C-3.62339844 111.19966797 -4.94210937 111.21964844 -6.30078125 111.24023438 C-7.57050781 111.23958984 -8.84023438 111.23894531 -10.1484375 111.23828125 C-11.88383789 111.24106079 -11.88383789 111.24106079 -13.65429688 111.24389648 C-17.47465653 110.63549296 -19.13033527 109.50248357 -21.8046875 106.7421875 C-22.6171875 102.9921875 -22.6171875 102.9921875 -22.8046875 99.7421875 C-23.20558594 100.20109375 -23.60648438 100.66 -24.01953125 101.1328125 C-32.1742105 109.93468851 -41.65381969 112.07363095 -53.37109375 112.9296875 C-66.00957746 113.25427135 -78.38310183 110.84595969 -88.1171875 102.4921875 C-96.44147274 94.507669 -99.79326175 86.88004864 -100.1171875 75.3671875 C-99.85487023 64.52474054 -97.35038853 58.0759142 -89.65625 50.2265625 C-72.43206761 35.22028852 -47.09588525 38.3622311 -25.8046875 38.7421875 C-26.26334273 37.45527925 -26.7280555 36.17052885 -27.1953125 34.88671875 C-27.58251465 33.81321167 -27.58251465 33.81321167 -27.97753906 32.71801758 C-29.92364541 28.06930487 -33.29487687 26.26112643 -37.80664062 24.39038086 C-41.24961594 23.27343322 -44.58163782 23.17059453 -48.1796875 23.1796875 C-49.34238159 23.17569946 -49.34238159 23.17569946 -50.52856445 23.17163086 C-57.22627163 23.34579971 -62.93239709 25.05497637 -69.05810547 27.69506836 C-73.73901893 29.66558379 -76.88111731 30.0827933 -81.8046875 28.7421875 C-85.42374563 25.70163843 -87.05117825 21.67809076 -89.0546875 17.4921875 C-89.43109375 16.75355469 -89.8075 16.01492188 -90.1953125 15.25390625 C-92.51303126 10.42248516 -93.5442793 7.06481914 -91.8046875 1.7421875 C-84.00236572 -6.25210705 -71.37479547 -8.41953285 -60.8046875 -10.2578125 C-59.73863281 -10.4434375 -58.67257812 -10.6290625 -57.57421875 -10.8203125 C-37.55695442 -13.14355976 -16.90260834 -11.83771525 0 0 Z M-56.6796875 67.0546875 C-58.40750647 69.64641596 -58.68300458 71.63927305 -58.8046875 74.7421875 C-57.26016446 78.8880125 -55.66534973 81.51938197 -51.8046875 83.7421875 C-46.75210098 85.7271322 -40.93731458 85.4416264 -35.9921875 83.3671875 C-32.76547361 81.8000242 -32.76547361 81.8000242 -29.8046875 79.7421875 C-28.1546875 79.4121875 -26.5046875 79.0821875 -24.8046875 78.7421875 C-24.8046875 73.4621875 -24.8046875 68.1821875 -24.8046875 62.7421875 C-28.4926356 62.66090211 -32.1787739 62.60154575 -35.8671875 62.5546875 C-36.90552734 62.52955078 -37.94386719 62.50441406 -39.01367188 62.47851562 C-45.97722225 62.4121961 -50.86668079 62.9855828 -56.6796875 67.0546875 Z " fill="#FDFDFF" transform="translate(786.8046875,318.2578125)"/>
<path d="M0 0 C2.04551608 0.0161045 4.089065 0.00008949 6.13452148 -0.01904297 C8.08841797 -0.01324219 8.08841797 -0.01324219 10.08178711 -0.00732422 C11.26264893 -0.00394043 12.44351074 -0.00055664 13.66015625 0.00292969 C18.06418073 0.5172447 21.33513023 2.0832852 24.79663086 4.82861328 C27.46273463 8.33664456 27.11536114 12.50389871 27.13130188 16.74739075 C27.13845718 18.05538132 27.14561249 19.36337189 27.15298462 20.71099854 C27.15582469 22.15881324 27.15853644 23.6066282 27.16113281 25.05444336 C27.16739993 26.58060358 27.17404695 28.10676227 27.18104553 29.63291931 C27.20205574 34.6421503 27.21244386 39.6513815 27.22241211 44.66064453 C27.22646055 46.3865784 27.2305775 48.11251212 27.23476219 49.83844566 C27.25380578 57.94626121 27.26803956 66.05406769 27.27637416 74.1619013 C27.2861492 83.51595172 27.31247909 92.86976567 27.35287505 102.22373277 C27.38304272 109.45783526 27.39784358 116.69186998 27.40115517 123.92603415 C27.40350456 128.24502957 27.41245073 132.56377211 27.43761635 136.88269997 C27.46091414 140.94655912 27.46512361 145.00999919 27.45485497 149.07390785 C27.45435994 150.56260066 27.46067078 152.05131422 27.47441101 153.5399437 C27.5973558 167.65317931 27.5973558 167.65317931 22.98413086 173.39111328 C19.26136724 175.8729557 16.30765035 175.73160509 11.99194336 175.76220703 C11.20898895 175.7712355 10.42603455 175.78026398 9.61935425 175.78956604 C7.96347882 175.80406667 6.30754612 175.81295482 4.65161133 175.81665039 C2.12474421 175.82853982 -0.39967425 175.87771534 -2.92602539 175.92822266 C-4.53669058 175.9376882 -6.14737074 175.94492261 -7.75805664 175.94970703 C-8.5102951 175.96923935 -9.26253357 175.98877167 -10.03756714 176.00889587 C-14.05475863 175.9745412 -15.78012208 175.58762225 -18.90698242 172.98120117 C-19.60291504 172.12647217 -20.29884766 171.27174316 -21.01586914 170.39111328 C-21.67586914 169.73111328 -22.33586914 169.07111328 -23.01586914 168.39111328 C-23.27034473 165.66020489 -23.27034473 165.66020489 -23.27656555 162.11003113 C-23.2803911 161.45848173 -23.28421665 160.80693233 -23.28815812 160.13563901 C-23.29851485 157.94231442 -23.29449098 155.74925032 -23.29052734 153.5559082 C-23.29487244 151.98738868 -23.30005491 150.41887128 -23.30601501 148.85035706 C-23.31944043 144.58165707 -23.31997959 140.31304544 -23.31745172 136.04432845 C-23.31638405 132.48321672 -23.3212603 128.92212302 -23.32605714 125.36101514 C-23.33716532 116.95916899 -23.33758287 108.55736753 -23.33154297 100.15551758 C-23.32550573 91.48499167 -23.33780481 82.81462813 -23.35911304 74.14412993 C-23.37672463 66.70457205 -23.38273096 59.26506587 -23.3794753 51.82548791 C-23.37766103 47.38027398 -23.38031251 42.93517578 -23.39418983 38.4899807 C-23.40675581 34.30800012 -23.40483581 30.12627253 -23.39177895 25.94429588 C-23.38941063 24.40962641 -23.39215698 22.87493922 -23.40040207 21.34029007 C-23.41085056 19.24428137 -23.40278508 17.14912442 -23.39009094 15.05314636 C-23.39025868 13.88045794 -23.39042643 12.70776953 -23.39059925 11.4995451 C-22.9719736 8.02699444 -22.10402023 6.17250646 -20.01586914 3.39111328 C-13.88800825 -0.60114886 -7.12155532 -0.0668208 0 0 Z " fill="#FDFDFF" transform="translate(490.015869140625,43.60888671875)"/>
<path d="M0 0 C0.71353638 -0.00619858 1.42707275 -0.01239716 2.16223145 -0.01878357 C3.66494386 -0.02586079 5.16773503 -0.0227443 6.67041016 -0.01000977 C8.96273644 0.00386984 11.2509861 -0.03024982 13.54296875 -0.06835938 C15.00781349 -0.0693106 16.47266332 -0.06745157 17.9375 -0.0625 C18.61784302 -0.07575821 19.29818604 -0.08901642 19.99914551 -0.10267639 C23.60693886 -0.03248224 25.30422795 0.43536881 28.14975739 2.70175743 C30.92998652 6.13617117 31.09295107 7.66726252 31.09020996 12.03189087 C31.10141876 13.33862259 31.11262756 14.64535431 31.12417603 15.99168396 C31.11126605 17.43277422 31.09785197 18.87386004 31.08398438 20.31494141 C31.0874866 21.83789183 31.09314634 23.36083859 31.10079956 24.8837738 C31.11504045 29.01395606 31.09799482 33.14347203 31.07451439 37.27359056 C31.05440526 41.59501934 31.06028485 45.91642047 31.06262207 50.23788452 C31.06256851 57.49268587 31.04281618 64.74722665 31.01074219 72.00195312 C30.97382206 80.39370191 30.96507053 88.78510972 30.9720397 97.17692912 C30.97834007 105.24741835 30.96760087 113.31779047 30.94807434 121.38825607 C30.93989212 124.82441245 30.93719228 128.26050904 30.93876648 131.69667435 C30.93964406 135.74002865 30.9254638 139.78305782 30.89953995 143.82632637 C30.89236564 145.31183229 30.8903006 146.79737277 30.89365768 148.28289223 C30.89735993 150.30691327 30.88081464 152.33094149 30.86315918 154.35488892 C30.85943047 155.48865274 30.85570175 156.62241657 30.85186005 157.79053688 C30.46875 160.56640625 30.46875 160.56640625 29.06909943 162.39212608 C25.58013834 164.95220311 22.40442056 164.74403815 18.23046875 164.76953125 C17.51268753 164.77523132 16.79490631 164.7809314 16.05537415 164.7868042 C14.53473383 164.79625577 13.01407301 164.80278881 11.4934082 164.80664062 C9.17557611 164.8163255 6.85863875 164.84733705 4.54101562 164.87890625 C3.06250526 164.88543862 1.58398855 164.89068817 0.10546875 164.89453125 C-0.58428543 164.90687805 -1.27403961 164.91922485 -1.98469543 164.9319458 C-6.38944387 164.91172855 -9.0925286 164.34353739 -12.53125 161.56640625 C-13.1604557 158.75650883 -13.1604557 158.75650883 -13.16616821 155.27223206 C-13.18026733 153.95286652 -13.19436646 152.63350098 -13.20889282 151.27415466 C-13.19917085 149.80849879 -13.18892997 148.34284628 -13.17822266 146.87719727 C-13.18499652 145.33645594 -13.19389835 143.79572272 -13.20477295 142.25500488 C-13.22760287 138.0668298 -13.21871458 133.87926928 -13.20287752 129.69108319 C-13.19023519 125.31136727 -13.20195419 120.93170464 -13.20980835 116.55198669 C-13.21891077 109.19528743 -13.20690257 101.83883894 -13.18310547 94.48217773 C-13.15590303 85.9744965 -13.16469934 77.46741451 -13.1922375 68.95974785 C-13.21492284 61.65942075 -13.2181312 54.35927414 -13.20504415 47.05892318 C-13.19724512 42.69697907 -13.19622008 38.33531664 -13.21272659 33.97339058 C-13.22716355 29.87163611 -13.21716467 25.77065438 -13.18825531 21.66898346 C-13.18163979 20.16293306 -13.18355026 18.6568177 -13.19456863 17.15079308 C-13.20821987 15.09550366 -13.19112067 13.04269501 -13.16616821 10.98756409 C-13.16428308 9.83737573 -13.16239796 8.68718737 -13.1604557 7.50214481 C-12.53125 4.56640625 -12.53125 4.56640625 -10.21141624 2.19842434 C-6.79500837 0.1180909 -3.8883968 -0.02834738 0 0 Z " fill="#FDFDFF" transform="translate(208.53125,263.43359375)"/>
<path d="M0 0 C2.51704805 2.51704805 2.24669599 4.07672899 2.27789307 7.51159668 C2.2738446 8.26058228 2.26979614 9.00956787 2.265625 9.78125 C2.26753845 10.55053833 2.2694519 11.31982666 2.27142334 12.11242676 C2.27278508 13.7398308 2.26908939 15.3672457 2.26074219 16.99462891 C2.25004221 19.49015631 2.26063751 21.98496382 2.2734375 24.48046875 C2.2721159 26.05989743 2.2695535 27.63932566 2.265625 29.21875 C2.26967346 29.9677356 2.27372192 30.71672119 2.27789307 31.48840332 C2.22992243 36.77007757 2.22992243 36.77007757 0 39 C-2.34751315 39.229238 -4.70510652 39.35962814 -7.0625 39.4375 C-16.28220989 39.89854038 -23.41211751 41.25526317 -30 48 C-33.23288233 53.46245636 -34.11860427 57.83362523 -34.17358398 64.11376953 C-34.18707382 65.34829865 -34.20056366 66.58282776 -34.21446228 67.85476685 C-34.21952223 68.51119297 -34.22458218 69.16761909 -34.22979546 69.84393692 C-34.24625671 71.90319864 -34.26949263 73.96228163 -34.29469299 76.02145386 C-34.36535408 81.87407497 -34.42574216 87.72676532 -34.47680664 93.57958984 C-34.508548 97.1634265 -34.54979953 100.74705042 -34.59700203 104.33071518 C-34.61303824 105.69665596 -34.62535233 107.06264561 -34.63390923 108.42865372 C-34.64602566 110.3341866 -34.67120406 112.23962303 -34.69702148 114.14501953 C-34.70732895 115.22993683 -34.71763641 116.31485413 -34.72825623 117.43264771 C-35 120 -35 120 -37 122 C-39.91764457 122.18772998 -42.73870813 122.25553095 -45.65625 122.23046875 C-46.94335876 122.22978142 -46.94335876 122.22978142 -48.25646973 122.2290802 C-50.0721983 122.22605674 -51.88792424 122.21816763 -53.70361328 122.20581055 C-56.48869987 122.18757399 -59.27345374 122.18530071 -62.05859375 122.18554688 C-63.82031539 122.18063095 -65.58203476 122.17480231 -67.34375 122.16796875 C-68.18023071 122.16685593 -69.01671143 122.1657431 -69.87854004 122.16459656 C-75.76786943 122.11606528 -75.76786943 122.11606528 -78 121 C-78.95559187 118.1332244 -79.12768083 116.34486542 -79.13371277 113.36950684 C-79.13797775 112.41891891 -79.14224274 111.46833099 -79.14663696 110.48893738 C-79.14618378 109.44780289 -79.14573059 108.4066684 -79.14526367 107.33398438 C-79.14862228 106.2362117 -79.1519809 105.13843903 -79.15544128 104.00740051 C-79.16496004 100.36950558 -79.16689474 96.73165662 -79.16796875 93.09375 C-79.17118024 90.57173646 -79.17454422 88.0497231 -79.17805481 85.52770996 C-79.18404808 80.23835747 -79.18593721 74.9490222 -79.18530273 69.65966797 C-79.18470153 63.5435714 -79.1952626 57.4275629 -79.2110464 51.31148863 C-79.22568681 45.42911754 -79.22929114 39.54677343 -79.22869301 33.66438293 C-79.22987613 31.16046285 -79.23431635 28.65654217 -79.24202538 26.15263367 C-79.25178131 22.65701908 -79.24896479 19.16163361 -79.24291992 15.66601562 C-79.24853943 14.62488113 -79.25415894 13.58374664 -79.25994873 12.51106262 C-79.25575424 11.5604747 -79.25155975 10.60988678 -79.24723816 9.63049316 C-79.24805531 8.39053463 -79.24805531 8.39053463 -79.24888897 7.12552643 C-79 5 -79 5 -77 2 C-74.11478052 1.72080989 -71.44710321 1.62815376 -68.5625 1.671875 C-67.3086853 1.67468475 -67.3086853 1.67468475 -66.02954102 1.67755127 C-64.26086443 1.68427894 -62.4922029 1.69820763 -60.72363281 1.71875 C-58.01092764 1.74987462 -55.29880343 1.75971676 -52.5859375 1.765625 C-50.86978456 1.77479608 -49.15363754 1.78517218 -47.4375 1.796875 C-46.62289307 1.80112488 -45.80828613 1.80537476 -44.96899414 1.80975342 C-39.23438656 1.88280672 -39.23438656 1.88280672 -37 3 C-36.5859375 5.06640625 -36.5859375 5.06640625 -36.375 7.5625 C-36.30023437 8.38878906 -36.22546875 9.21507812 -36.1484375 10.06640625 C-36.09945312 10.70449219 -36.05046875 11.34257812 -36 12 C-35.40574219 11.54109375 -34.81148437 11.0821875 -34.19921875 10.609375 C-24.20840619 3.2133769 -12.65471501 -1.49325637 0 0 Z " fill="#FDFDFF" transform="translate(905,307)"/>
<path d="M0 0 C2.01590828 0.02682026 4.02625317 0.00017186 6.04199219 -0.03173828 C13.46310076 0.0052932 19.45800746 0.31545752 25.01855469 5.65185547 C26.22265998 8.06006605 26.14954949 9.57230622 26.15899658 12.26252747 C26.16470673 13.23409286 26.17041687 14.20565826 26.17630005 15.20666504 C26.17741791 16.27630493 26.17853577 17.34594482 26.1796875 18.44799805 C26.18713486 20.13351021 26.18713486 20.13351021 26.19473267 21.85307312 C26.20938217 25.5841838 26.21616103 29.31525196 26.22167969 33.04638672 C26.22742895 35.63229881 26.23318671 38.21821087 26.23895264 40.80412292 C26.24812503 45.53784371 26.25442203 50.27154741 26.25744939 55.00527555 C26.26192855 61.97088336 26.27946873 68.93629479 26.30844998 75.90184289 C26.3326812 81.93531957 26.34039422 87.96870343 26.34212494 94.00223351 C26.34515597 96.56870276 26.35319955 99.1351711 26.36631012 101.70160866 C26.38333413 105.2904008 26.38149896 108.87871334 26.375 112.4675293 C26.38882217 114.0628801 26.38882217 114.0628801 26.40292358 115.69046021 C26.35177413 124.69142336 26.35177413 124.69142336 23.01855469 128.65185547 C19.50631892 131.32712217 15.3849023 130.97486047 11.14746094 130.98779297 C10.38811752 130.99444977 9.62877411 131.00110657 8.84642029 131.00796509 C7.24358536 131.01807034 5.64070854 131.02278277 4.0378418 131.02246094 C1.59255368 131.0268349 -0.85092935 131.06317535 -3.29589844 131.10107422 C-4.85643917 131.10694283 -6.41698843 131.11091193 -7.97753906 131.11279297 C-9.06838051 131.13434952 -9.06838051 131.13434952 -10.18125916 131.15634155 C-13.68976582 131.1249369 -15.82369895 130.74601841 -18.85668945 128.93554688 C-23.79994383 123.62252821 -23.26772846 117.84754035 -23.24023438 110.97412109 C-23.24373901 109.89877609 -23.24724365 108.82343109 -23.25085449 107.71549988 C-23.25965278 104.1629693 -23.25382924 100.61063806 -23.24707031 97.05810547 C-23.24841751 94.58858197 -23.25035849 92.11905873 -23.25286865 89.64953613 C-23.25581734 84.47466506 -23.25153039 79.29986305 -23.2421875 74.125 C-23.2307932 67.49036411 -23.23735402 60.85589003 -23.24933243 54.22126007 C-23.25655785 49.12207825 -23.25425994 44.02293481 -23.24907684 38.92375183 C-23.24774224 36.47730999 -23.24938144 34.03086466 -23.25403595 31.58442688 C-23.25911227 28.16605387 -23.25137507 24.7479433 -23.24023438 21.32958984 C-23.24428284 20.31748947 -23.2483313 19.3053891 -23.25250244 18.26261902 C-23.19101008 8.08283324 -23.19101008 8.08283324 -19.56347656 4.09179688 C-13.42087816 -0.12022217 -7.28384704 -0.11530688 0 0 Z " fill="#FDFDFF" transform="translate(565.9814453125,88.34814453125)"/>
<path d="M0 0 C0.7891127 -0.00807175 1.5782254 -0.01614349 2.39125061 -0.02445984 C4.06151127 -0.03829622 5.73180015 -0.04902038 7.40209961 -0.05688477 C9.95936298 -0.07412911 12.51534379 -0.11802027 15.07226562 -0.16210938 C16.6940009 -0.17223364 18.31574717 -0.18075058 19.9375 -0.1875 C21.08604713 -0.21376213 21.08604713 -0.21376213 22.25779724 -0.24055481 C24.42163086 -0.23168945 24.42163086 -0.23168945 28.03515625 0.23828125 C30.78478435 3.04225089 31.41132417 5.07341952 31.4228363 8.94433594 C31.43274094 9.88643921 31.44264557 10.82854248 31.45285034 11.79919434 C31.44609787 13.33912048 31.44609787 13.33912048 31.43920898 14.91015625 C31.44607224 15.99671509 31.45293549 17.08327393 31.46000671 18.20275879 C31.4783236 21.79806547 31.47443043 25.39293788 31.46875 28.98828125 C31.47330912 31.48405093 31.47861388 33.97981935 31.4846344 36.47558594 C31.49357488 41.70772262 31.49136453 46.93974626 31.48120117 52.171875 C31.46971566 58.21823442 31.48380311 64.2641505 31.51059765 70.31045151 C31.5354224 76.13039169 31.5379336 81.95015922 31.53148079 87.7701416 C31.53132715 90.24532814 31.53740631 92.72052305 31.54977226 95.19567871 C31.56461162 98.65292579 31.55405647 102.1091904 31.53686523 105.56640625 C31.5465332 106.59302368 31.55620117 107.61964111 31.56616211 108.67736816 C31.49422778 115.56862564 31.49422778 115.56862564 29.22901917 118.8729248 C25.97874354 120.89574252 22.84101408 120.81057045 19.12890625 120.76953125 C18.36719116 120.77335815 17.60547607 120.77718506 16.82067871 120.78112793 C15.21360957 120.78384438 13.60649601 120.77650169 11.99951172 120.75976562 C9.54294038 120.73834911 7.08929314 120.75957303 4.6328125 120.78515625 C3.06900398 120.78251292 1.50519727 120.77738783 -0.05859375 120.76953125 C-1.15717712 120.78167664 -1.15717712 120.78167664 -2.2779541 120.79406738 C-5.34080008 120.73789636 -7.5387198 120.50447467 -10.15969849 118.8671875 C-13.01535874 114.70837367 -12.50514811 110.58790043 -12.45068359 105.65820312 C-12.45448029 104.58139786 -12.45827698 103.50459259 -12.46218872 102.39515686 C-12.46960422 98.83215299 -12.44819672 95.26996278 -12.42578125 91.70703125 C-12.42339733 89.23368424 -12.42249139 86.76033541 -12.42300415 84.2869873 C-12.41987441 79.10185419 -12.40329521 73.91699724 -12.37646484 68.73193359 C-12.34248481 62.08029196 -12.33483617 55.4291077 -12.33635521 48.77736664 C-12.33581174 43.66962782 -12.32484824 38.56195558 -12.31035233 33.45423889 C-12.30398103 31.00139368 -12.30004466 28.54854091 -12.29856491 26.09568787 C-12.29423553 22.66978059 -12.27674183 19.24419722 -12.25537109 15.81835938 C-12.25627747 14.80109268 -12.25718384 13.78382599 -12.25811768 12.73573303 C-12.24958771 11.80204391 -12.24105774 10.8683548 -12.23226929 9.90637207 C-12.2289176 9.09670235 -12.22556591 8.28703262 -12.22211266 7.45282745 C-11.93295079 4.96374973 -11.29060707 3.3564963 -9.96484375 1.23828125 C-6.8224737 -0.33290377 -3.4521263 0.03321595 0 0 Z " fill="#FDFDFF" transform="translate(936.96484375,308.76171875)"/>
<path d="M0 0 C2.00147448 1.13962597 3.88393308 2.37151509 5.7746582 3.68652344 C6.46914063 4.14502686 7.16362305 4.60353027 7.87915039 5.07592773 C9.9196883 6.42805457 11.94159605 7.80479646 13.9621582 9.18652344 C15.87831194 10.45813003 17.79493354 11.72903207 19.7121582 12.99902344 C20.64672852 13.63066406 21.58129883 14.26230469 22.54418945 14.91308594 C25.3285181 16.78198334 28.14777849 18.59240788 30.97387695 20.39746094 C31.866875 20.97004639 32.75987305 21.54263184 33.67993164 22.13256836 C35.45729019 23.27062029 37.23777139 24.40381398 39.02172852 25.53149414 C44.69926807 29.17619055 49.17919938 32.5120852 52.9621582 38.18652344 C53.19262695 40.34277344 53.19262695 40.34277344 53.1496582 42.68652344 C53.14321289 43.45996094 53.13676758 44.23339844 53.13012695 45.03027344 C52.9621582 47.18652344 52.9621582 47.18652344 51.9621582 50.18652344 C51.3021582 50.18652344 50.6421582 50.18652344 49.9621582 50.18652344 C49.73270508 50.77046875 49.50325195 51.35441406 49.2668457 51.95605469 C47.62156066 54.76880247 45.76877893 56.03985852 43.0871582 57.87402344 C42.22348633 58.47601563 41.35981445 59.07800781 40.4699707 59.69824219 C38.21742277 61.03503465 36.51819896 61.74070237 33.9621582 62.18652344 C33.9621582 62.84652344 33.9621582 63.50652344 33.9621582 64.18652344 C32.07498561 65.4916428 30.12363946 66.70434188 28.1496582 67.87402344 C26.95000688 68.5933546 25.750795 69.31341909 24.55200195 70.03417969 C23.94727051 70.39527832 23.34253906 70.75637695 22.71948242 71.12841797 C20.191868 72.65032418 17.7006621 74.22664649 15.2121582 75.81152344 C14.32141602 76.37484375 13.43067383 76.93816406 12.51293945 77.51855469 C10.85822347 78.60058183 9.22802515 79.72144451 7.63012695 80.88574219 C2.37076475 84.68979926 -2.44081777 87.02241836 -9.0378418 87.18652344 C-13.58626276 85.99349499 -17.02742124 84.11754635 -20.00128174 80.39605713 C-22.48480052 75.10218306 -21.65413111 68.61428181 -21.5612793 62.86621094 C-21.55448319 61.35979991 -21.54976502 59.85337821 -21.54702759 58.34695435 C-21.53365169 54.39272001 -21.48940912 50.43939084 -21.43945312 46.48547363 C-21.40401845 43.2578299 -21.39096658 40.03027676 -21.37903404 36.80247307 C-21.3642342 32.94866263 -21.33903906 29.09494734 -21.3112793 25.24121094 C-21.30636852 24.50800503 -21.30145775 23.77479912 -21.29639816 23.01937485 C-21.28008366 20.94201128 -21.25667908 18.86486046 -21.23071289 16.78759766 C-21.21785248 15.60656464 -21.20499207 14.42553162 -21.19174194 13.20870972 C-21.06324196 10.6853145 -20.77613037 8.58839702 -20.0378418 6.18652344 C-19.3778418 6.18652344 -18.7178418 6.18652344 -18.0378418 6.18652344 C-17.8109668 5.58839844 -17.5840918 4.99027344 -17.3503418 4.37402344 C-13.72276309 -1.67194107 -6.21749161 -2.48193148 0 0 Z " fill="#FDFCFD" transform="translate(352.037841796875,303.8134765625)"/>
<path d="M0 0 C7.44470594 0.12848731 10.77290309 2.00707053 16.4375 6.5 C18.71910622 7.97841549 21.00787733 9.4338385 23.3125 10.875 C40.2125863 21.66262945 40.2125863 21.66262945 43.4375 26.5 C43.7734375 28.76953125 43.7734375 28.76953125 43.8125 31.3125 C43.84085938 32.14394531 43.86921875 32.97539063 43.8984375 33.83203125 C43.13915435 38.22686507 41.16357316 41.20351415 37.58251953 43.89331055 C35.36017165 45.31034503 33.10347203 46.63444944 30.8125 47.9375 C29.18732355 48.89332384 27.56361344 49.85164541 25.94140625 50.8125 C24.77375732 51.50085938 24.77375732 51.50085938 23.58251953 52.203125 C20.88574221 53.83359178 18.31036988 55.60131511 15.75 57.4375 C4.39701705 65.51073232 4.39701705 65.51073232 -3.5625 64.5 C-7.51821781 62.41018682 -10.18694874 60.27557513 -12.5625 56.5 C-12.95018005 54.23709106 -12.95018005 54.23709106 -12.96655273 51.73486328 C-12.97923691 50.79353546 -12.99192108 49.85220764 -13.00498962 48.88235474 C-13.00205399 47.8718808 -12.99911835 46.86140686 -12.99609375 45.8203125 C-13.0013356 44.77479218 -13.00657745 43.72927185 -13.01197815 42.65206909 C-13.0183986 40.44139493 -13.01706108 38.23068661 -13.00854492 36.02001953 C-13.00004841 32.64423432 -13.02877578 29.27014873 -13.06054688 25.89453125 C-13.06215936 23.74479217 -13.06158044 21.59505011 -13.05859375 19.4453125 C-13.06982773 18.43888702 -13.08106171 17.43246155 -13.09263611 16.39553833 C-13.00006371 7.04418555 -10.28716831 0.26633445 0 0 Z " fill="#FDFDFF" transform="translate(553.5625,16.5)"/>
<path d="M0 0 C1.09441406 -0.02416992 1.09441406 -0.02416992 2.2109375 -0.04882812 C9.21997429 -0.05508619 14.67307246 2.01307021 19.9375 6.75 C20.59363281 7.32621094 21.24976563 7.90242188 21.92578125 8.49609375 C26.75735631 13.66088088 26.10458387 19.77832417 25.93359375 26.44921875 C25.41533779 32.93725851 23.09594459 36.06434146 18.5 40.5625 C12.64956604 45.23784679 5.316215 46.90762219 -2.0859375 46.59375 C-10.79337201 45.52389457 -17.19239272 42.63002206 -22.65625 35.68359375 C-26.32311829 30.03923578 -26.90437231 24.1518606 -25.6875 17.625 C-22.8169066 10.38016903 -18.10282007 4.78977695 -11.17578125 1.16015625 C-7.44481832 0.03098058 -3.86083358 -0.01687427 0 0 Z " fill="#E01C48" transform="translate(946.375,253.6875)"/>
<path d="M0 0 C4.20441966 1.9037353 6.53074694 4.00283725 8.5 8.1875 C9.77878067 11.36665889 9.77878067 11.36665889 13.4375 12.125 C14.613125 12.41375 15.78875 12.7025 17 13 C19.4375 14.6875 19.4375 14.6875 21 17 C21.44368738 21.14108223 21.54074553 24.56999354 19 28 C15.3683743 30.46332916 11.61544314 30.30625899 7.3828125 30.30078125 C6.28064896 30.30720894 6.28064896 30.30720894 5.15621948 30.31376648 C3.60464506 30.31949811 2.05304377 30.32001864 0.50146484 30.31567383 C-1.86017256 30.3125198 -4.22054912 30.33596497 -6.58203125 30.36132812 C-8.09374843 30.363602 -9.60546896 30.3643042 -11.1171875 30.36328125 C-11.81738007 30.372491 -12.51757263 30.38170074 -13.23898315 30.39118958 C-17.8911751 30.34776724 -21.03399892 29.41201685 -25 27 C-27.78169 24.15937589 -28.45084604 22.06960564 -28.5 18.125 C-28.36589953 14.33107411 -27.97974786 12.96519163 -26 9.5625 C-22.94460349 6.95268215 -20.72602776 5.89330063 -16.96875 4.72265625 C-14.70730399 3.99842306 -14.70730399 3.99842306 -12.0625 1.8125 C-7.93401918 -0.63088661 -4.68640643 -0.93728129 0 0 Z " fill="#E22A54" transform="translate(367,331)"/>
<path d="M0 0 C4.98428271 -0.5863862 7.97918431 -0.75540361 12.125 2.3125 C14.89078013 6.22990188 14.04064236 10.27587132 13.39453125 14.8046875 C13.26433594 15.52914063 13.13414062 16.25359375 13 17 C16.36748512 15.48052501 17.60840337 14.47899158 19 11 C21.475 11.495 21.475 11.495 24 12 C24.042721 13.66611905 24.04063832 15.33382885 24 17 C22.07481723 18.92518277 18.55163317 18.13063271 16.0078125 18.1328125 C15.30606903 18.13376923 14.60432556 18.13472595 13.88131714 18.13571167 C12.39337067 18.1363935 10.90542125 18.134539 9.41748047 18.13037109 C7.1415332 18.12503874 4.86578471 18.13030765 2.58984375 18.13671875 C1.1458329 18.13605766 -0.29817783 18.13477585 -1.7421875 18.1328125 C-3.0607373 18.13168457 -4.37928711 18.13055664 -5.73779297 18.12939453 C-9 18 -9 18 -12 17 C-12 16.34 -12 15.68 -12 15 C-12.66 15 -13.32 15 -14 15 C-14.25 11.6875 -14.25 11.6875 -14 8 C-11.92308202 5.61539047 -10.59443084 5.1040254 -7.5 4.5625 C-4.19047087 5.1416676 -3.07164202 6.41044748 -1 9 C-0.67 9.99 -0.34 10.98 0 12 C2.01508358 12.73323796 2.01508358 12.73323796 4 13 C3.50263981 7.25480417 3.50263981 7.25480417 0 3 C0 2.01 0 1.02 0 0 Z " fill="#FCF2F5" transform="translate(358,337)"/>
<path d="M0 0 C8.87813287 -0.62060735 8.87813287 -0.62060735 12.9375 1.625 C15 4 15 4 16.375 7.125 C17.78579766 10.37080196 17.78579766 10.37080196 21.5625 11.1875 C22.696875 11.455625 23.83125 11.72375 25 12 C27.20914 15.31371 27.22481553 16.3446021 27.125 20.1875 C27.10695313 21.08855469 27.08890625 21.98960937 27.0703125 22.91796875 C27.04710937 23.60503906 27.02390625 24.29210937 27 25 C26.01 25 25.02 25 24 25 C24 24.01 24 23.02 24 22 C23.37400383 20.31763529 22.71247732 18.6476038 22 17 C20.68 17 19.36 17 18 17 C16.96986723 18.64821244 15.96885372 20.31503702 15 22 C14.01 22 13.02 22 12 22 C12.04640625 21.26394531 12.0928125 20.52789062 12.140625 19.76953125 C12.39227199 13.69385224 12.39227199 13.69385224 10.5625 8 C7.02169779 5.23644705 3.30700095 4.1319682 -1 3 C-0.67 2.01 -0.34 1.02 0 0 Z " fill="#E1234E" transform="translate(359,332)"/>
<path d="M0 0 C11.22 0 22.44 0 34 0 C33.67 1.32 33.34 2.64 33 4 C21.12 4 9.24 4 -3 4 C-2.01 3.01 -1.02 2.02 0 1 C0 0.67 0 0.34 0 0 Z " fill="#DF1544" transform="translate(348,356)"/>
<path d="M0 0 C0 0.33 0 0.66 0 1 C-2.64 1 -5.28 1 -8 1 C-8 1.99 -8 2.98 -8 4 C-5.03 4.495 -5.03 4.495 -2 5 C-2 5.33 -2 5.66 -2 6 C-4.31 6 -6.62 6 -9 6 C-7.24545615 9.18234105 -7.24545615 9.18234105 -5 12 C-4.95907063 14.33297433 -4.95758277 16.66705225 -5 19 C-6.65 18.67 -8.3 18.34 -10 18 C-10.33 16.35 -10.66 14.7 -11 13 C-13.31 12.34 -15.62 11.68 -18 11 C-17.34 9.68 -16.68 8.36 -16 7 C-17.65 7 -19.3 7 -21 7 C-21 6.67 -21 6.34 -21 6 C-20.13375 5.7525 -19.2675 5.505 -18.375 5.25 C-14.92766254 4.15755544 -14.92766254 4.15755544 -12.1875 1.875 C-7.99851475 -0.58910897 -4.73881243 -0.37910499 0 0 Z " fill="#E4365D" transform="translate(367,331)"/>
<path d="M0 0 C3 3 3 3 3.3125 6.4375 C2.87064677 11.47462687 2.87064677 11.47462687 1 14 C-2.68282515 16.53406439 -6.53166649 16.25664944 -10.828125 16.1953125 C-11.95163361 16.19106766 -11.95163361 16.19106766 -13.09783936 16.18673706 C-15.48205776 16.1755726 -17.86589579 16.15047531 -20.25 16.125 C-21.86978623 16.11496535 -23.48957836 16.10584035 -25.109375 16.09765625 C-29.07306246 16.07564555 -33.03646681 16.04114175 -37 16 C-37 15.67 -37 15.34 -37 15 C-26.11 15 -15.22 15 -4 15 C-4 14.01 -4 13.02 -4 12 C-14.89 11.67 -25.78 11.34 -37 11 C-37.33 10.34 -37.66 9.68 -38 9 C-26.78 9 -15.56 9 -4 9 C-3.34 7.68 -2.68 6.36 -2 5 C-1.34 5.66 -0.68 6.32 0 7 C-0.375 9.625 -0.375 9.625 -1 12 C-0.67 12 -0.34 12 0 12 C0 8.04 0 4.08 0 0 Z " fill="#EA5F7B" transform="translate(385,345)"/>
<path d="M0 0 C0.33 0.99 0.66 1.98 1 3 C-1.67478244 4.6627026 -3.9995144 5.99983813 -7 7 C-7.33 7.66 -7.66 8.32 -8 9 C-8.98731742 10.34275169 -9.98594743 11.67732273 -11 13 C-11.6147541 5.00819672 -11.6147541 5.00819672 -9.4375 1.4375 C-6.17847619 -0.4844884 -3.71510114 -0.28577701 0 0 Z " fill="#E33059" transform="translate(351,338)"/>
<path d="M0 0 C3.375 -0.1875 3.375 -0.1875 7 0 C9.20914 3.31371 9.22481553 4.3446021 9.125 8.1875 C9.10695313 9.08855469 9.08890625 9.98960937 9.0703125 10.91796875 C9.03550781 11.94857422 9.03550781 11.94857422 9 13 C8.01 13 7.02 13 6 13 C6 12.01 6 11.02 6 10 C4.79084022 5.96946739 3.4015723 4.38110061 0 2 C0 1.34 0 0.68 0 0 Z " fill="#E01445" transform="translate(377,344)"/>
<path d="M0 0 C1.65 0.33 3.3 0.66 5 1 C5.042721 2.66611905 5.04063832 4.33382885 5 6 C4 7 4 7 1.93359375 7.09765625 C1.10988281 7.08605469 0.28617187 7.07445312 -0.5625 7.0625 C-1.38878906 7.05347656 -2.21507812 7.04445313 -3.06640625 7.03515625 C-3.70449219 7.02355469 -4.34257812 7.01195312 -5 7 C-4.52949219 6.55011719 -4.05898438 6.10023438 -3.57421875 5.63671875 C-1.88442061 3.87983185 -0.99174341 2.21235068 0 0 Z " fill="#FADEE4" transform="translate(377,348)"/>
<path d="M0 0 C1.32 0 2.64 0 4 0 C2.62845496 2.95409701 1.01136276 5.44008376 -1 8 C-1.04241723 5.66705225 -1.04092937 3.33297433 -1 1 C-0.67 0.67 -0.34 0.34 0 0 Z " fill="#DF1444" transform="translate(341,343)"/>
<path d="M0 0 C1.98 0 3.96 0 6 0 C5.67 0.99 5.34 1.98 5 3 C3.35 3.33 1.7 3.66 0 4 C-0.33 3.34 -0.66 2.68 -1 2 C-0.67 1.34 -0.34 0.68 0 0 Z " fill="#DF1142" transform="translate(359,332)"/>
<path d="M0 0 C1.65 0 3.3 0 5 0 C5.33 0.99 5.66 1.98 6 3 C2.25 4.125 2.25 4.125 0 3 C0 2.01 0 1.02 0 0 Z " fill="#E01244" transform="translate(346,338)"/>
</svg>
